<svg xmlns="http://www.w3.org/2000/svg" viewBox="0 0 137 53.69"><defs><style>.cls-1{fill:#f49c00;}</style></defs><title>アセット 22</title><g id="レイヤー_2" data-name="レイヤー 2"><g id="ヘッダー"><path class="cls-1" d="M3,43.72a6.86,6.86,0,0,1,1.33-2.29,5.89,5.89,0,0,1,2.12-1.54,6.94,6.94,0,0,1,2.83-.56,6.93,6.93,0,0,1,2.85.56,5.94,5.94,0,0,1,2.11,1.54,6.86,6.86,0,0,1,1.33,2.29A8.54,8.54,0,0,1,16,46.58a8.17,8.17,0,0,1-.46,2.79,6.62,6.62,0,0,1-1.33,2.26,6,6,0,0,1-2.11,1.51,6.93,6.93,0,0,1-2.85.55,6.94,6.94,0,0,1-2.83-.55,5.94,5.94,0,0,1-2.12-1.51A6.62,6.62,0,0,1,3,49.37a8.17,8.17,0,0,1-.46-2.79A8.54,8.54,0,0,1,3,43.72Zm2.76,4.54a4.63,4.63,0,0,0,.64,1.47,3.41,3.41,0,0,0,1.15,1.05,3.59,3.59,0,0,0,1.73.39A3.54,3.54,0,0,0,11,50.78a3.35,3.35,0,0,0,1.16-1.05,4.63,4.63,0,0,0,.64-1.47,6.78,6.78,0,0,0,.2-1.68,7.23,7.23,0,0,0-.2-1.75,4.56,4.56,0,0,0-.64-1.51A3.38,3.38,0,0,0,11,42.26a3.54,3.54,0,0,0-1.73-.39,3.59,3.59,0,0,0-1.73.39,3.44,3.44,0,0,0-1.15,1.06,4.56,4.56,0,0,0-.64,1.51,7.23,7.23,0,0,0-.2,1.75A6.78,6.78,0,0,0,5.72,48.26Z"/><path class="cls-1" d="M21.05,39.66l5.72,9.2h0v-9.2h2.83V53.38h-3l-5.71-9.19h0v9.19H18.05V39.66Z"/><path class="cls-1" d="M35.31,39.66V50.84H42v2.54H32.29V39.66Z"/><path class="cls-1" d="M46.7,39.66V53.38h-3V39.66Z"/><path class="cls-1" d="M52.35,39.66l5.73,9.2h0v-9.2H61V53.38h-3l-5.71-9.19h0v9.19H49.36V39.66Z"/><path class="cls-1" d="M73.86,39.66V42.2H66.62v2.94h6.65v2.34H66.62v3.36H74v2.54H63.6V39.66Z"/><path class="cls-1" d="M83.7,50a2.29,2.29,0,0,0,.66.78,2.93,2.93,0,0,0,1,.44,4.37,4.37,0,0,0,1.15.14,6.55,6.55,0,0,0,.86-.06,3.51,3.51,0,0,0,.87-.26,2,2,0,0,0,.67-.53,1.34,1.34,0,0,0,.27-.86,1.22,1.22,0,0,0-.35-.9,3,3,0,0,0-.94-.58,9.11,9.11,0,0,0-1.3-.4c-.49-.12-1-.24-1.48-.39a10.47,10.47,0,0,1-1.5-.47,4.74,4.74,0,0,1-1.31-.72A3.24,3.24,0,0,1,81,43.48a3.6,3.6,0,0,1,.45-1.83,4.11,4.11,0,0,1,1.19-1.3,5,5,0,0,1,1.65-.77,7.28,7.28,0,0,1,1.84-.25,8.76,8.76,0,0,1,2.07.24,5.11,5.11,0,0,1,1.76.78,4,4,0,0,1,1.22,1.37,4.26,4.26,0,0,1,.45,2H88.7a2.46,2.46,0,0,0-.26-1,1.63,1.63,0,0,0-.59-.63,2.67,2.67,0,0,0-.83-.33,5.56,5.56,0,0,0-1-.09,3.61,3.61,0,0,0-.73.07,1.84,1.84,0,0,0-.66.27,1.6,1.6,0,0,0-.49.48,1.3,1.3,0,0,0-.2.73,1.2,1.2,0,0,0,.16.66,1.38,1.38,0,0,0,.6.46,7.8,7.8,0,0,0,1.25.42l2.09.54a10.91,10.91,0,0,1,1.06.28,5.08,5.08,0,0,1,1.36.64,4.08,4.08,0,0,1,1.16,1.18,3.37,3.37,0,0,1,.49,1.9,4.28,4.28,0,0,1-.36,1.75,3.94,3.94,0,0,1-1.09,1.39,5.29,5.29,0,0,1-1.79.91,8.35,8.35,0,0,1-2.47.33,8.51,8.51,0,0,1-2.2-.28,5.7,5.7,0,0,1-1.88-.87A4.34,4.34,0,0,1,81,51a4.59,4.59,0,0,1-.46-2.19h2.92A2.59,2.59,0,0,0,83.7,50Z"/><path class="cls-1" d="M96.89,39.66v5.26h5.55V39.66h3V53.38h-3V47.46H96.89v5.92h-3V39.66Z"/><path class="cls-1" d="M108,43.72a6.84,6.84,0,0,1,1.32-2.29,6,6,0,0,1,2.13-1.54,7.48,7.48,0,0,1,5.68,0,6,6,0,0,1,2.11,1.54,6.86,6.86,0,0,1,1.33,2.29,8.79,8.79,0,0,1,.46,2.86,8.42,8.42,0,0,1-.46,2.79,6.62,6.62,0,0,1-1.33,2.26,6.08,6.08,0,0,1-2.11,1.51,7.61,7.61,0,0,1-5.68,0,6.07,6.07,0,0,1-2.13-1.51A6.6,6.6,0,0,1,108,49.37a8.17,8.17,0,0,1-.47-2.79A8.54,8.54,0,0,1,108,43.72Zm2.75,4.54a4.64,4.64,0,0,0,.65,1.47,3.32,3.32,0,0,0,1.15,1.05,4,4,0,0,0,3.46,0,3.32,3.32,0,0,0,1.15-1.05,4.64,4.64,0,0,0,.65-1.47,7.28,7.28,0,0,0,.2-1.68,7.76,7.76,0,0,0-.2-1.75,4.58,4.58,0,0,0-.65-1.51A3.35,3.35,0,0,0,116,42.26a4,4,0,0,0-3.46,0,3.35,3.35,0,0,0-1.15,1.06,4.58,4.58,0,0,0-.65,1.51,7.76,7.76,0,0,0-.2,1.75A7.28,7.28,0,0,0,110.73,48.26Z"/><path class="cls-1" d="M129.25,39.66a5.7,5.7,0,0,1,2.19.37,4,4,0,0,1,1.47,1,3.73,3.73,0,0,1,.83,1.41,5.21,5.21,0,0,1,0,3.25,3.7,3.7,0,0,1-.83,1.42,4,4,0,0,1-1.47,1,5.7,5.7,0,0,1-2.19.37h-3.17v4.92h-3V39.66Zm-.82,6.46a6.53,6.53,0,0,0,1-.08,2.21,2.21,0,0,0,.84-.3,1.68,1.68,0,0,0,.59-.62,2.66,2.66,0,0,0,0-2.12,1.68,1.68,0,0,0-.59-.62,2.21,2.21,0,0,0-.84-.3,6.53,6.53,0,0,0-1-.08h-2.35v4.12Z"/><path class="cls-1" d="M126.15,9.78c1.38-.36,2.18-1.19,2.18-3.11a3.3,3.3,0,0,0-3.4-3A3.34,3.34,0,0,0,121.66,7c0,7.69,14.68,6.34,14.68,17.05,0,5.6-4.72,9.3-9.75,9.3s-8.45-2-10-6.73a4,4,0,0,0-3.25-2.76,3.29,3.29,0,0,1,3.07-2.15,3.33,3.33,0,0,1,2.12.74.84.84,0,0,0,1.35,0,3.45,3.45,0,0,1,2.17-.74A3,3,0,0,1,125,23.82a2.58,2.58,0,0,0-2.36,2.5c-.06,1.79,1.19,2.88,3.24,2.88,2.22,0,3.46-1.45,3.46-3.91,0-8.33-13.21-6.57-13.21-16.47,0-5.05,3.27-8.82,8.91-8.82,4.45,0,7.48,2.23,9,6.58.76,2.11,1.65,3,2.91,3.2a2.9,2.9,0,0,1-2.72,2.14,2.81,2.81,0,0,1-1.9-.74.81.81,0,0,0-1.35,0,2.78,2.78,0,0,1-2,.74A3,3,0,0,1,126.15,9.78ZM62.59,33.31a3.32,3.32,0,0,1-2.15-.75.83.83,0,0,0-1.34,0,3.46,3.46,0,0,1-2.15.75,3.17,3.17,0,0,1-3-2.15c1.15,0,2.36-1.31,2.36-3.1,0-2.29-1.45-4-3.62-4s-3.62,1.73-3.62,4c0,1.79,1.21,3.1,2.36,3.1a3.14,3.14,0,0,1-3,2.15,3.46,3.46,0,0,1-2.15-.75.84.84,0,0,0-1.35,0,3.29,3.29,0,0,1-2.14.75,3.16,3.16,0,0,1-3-2.15c4.34-.41,7.57-11,4.19-14.3,5.9-3.75,6.92-13.11,2.88-14.29a3.15,3.15,0,0,1,3-2.15A3.45,3.45,0,0,1,52,1.16a.84.84,0,0,0,1.35,0A3.34,3.34,0,0,1,55.51.42a3.14,3.14,0,0,1,3,2.15c-4,1.18-3,10.54,2.89,14.29-3.38,3.29-.15,13.89,4.19,14.3A3.17,3.17,0,0,1,62.59,33.31ZM52.69,13c-3.35,2.64-3.11,7.89,0,7.89S56,15.64,52.69,13Zm-36,19a.83.83,0,0,1,1.34,0,5,5,0,0,0,3.32,1.36,3.21,3.21,0,0,0,3.08-2.12c-4.33-.13-4.79-9.89.41-10.71a3.15,3.15,0,0,0-3-2.14,3.31,3.31,0,0,0-2.15.74.84.84,0,0,1-1.35,0,3.43,3.43,0,0,0-2.15-.74,3.15,3.15,0,0,0-3,2.14c5.67.9,3.12,8.42-.9,8.42-5,0-5.81-8.83-1.8-12C6.42,13.57,7.25,4.47,12.34,4.47c4,0,5.61,5.47.9,8a3.14,3.14,0,0,0,3,2.15,3.35,3.35,0,0,0,2.15-.74.84.84,0,0,1,1.35,0,3.43,3.43,0,0,0,2.15.74,3.14,3.14,0,0,0,3-2.15c-1.32-.37-2.42-1.59-2.89-4.13C21.05,3.35,17.21,0,12.47,0,6.25,0,3,4.83,2.54,9.54,2.31,12,1.39,15.71,0,16.86c1.48,1.23,2.33,4.26,2.54,7C3,29.41,7,33.31,12.47,33.31A7.06,7.06,0,0,0,16.72,32ZM35.92.42a3.39,3.39,0,0,0-2.15.74.83.83,0,0,1-1.34,0A3.45,3.45,0,0,0,30.28.42a3.15,3.15,0,0,0-3,2.15c4,.48,5.16,9.93.55,14.29,4.61,4.36,3.49,13.82-.55,14.3a3.17,3.17,0,0,0,3,2.15,3.46,3.46,0,0,0,2.15-.75.83.83,0,0,1,1.34,0,3.34,3.34,0,0,0,2.15.75,3.17,3.17,0,0,0,3-2.15c-4-.48-5.16-9.94-.55-14.3-4.61-4.36-3.49-13.81.55-14.29A3.15,3.15,0,0,0,35.92.42ZM107,7.52a2.71,2.71,0,0,1,1.74.75c.45.35,2.66,2.53,3,2.92.81.81,1.89.28,1.5-.77a74.87,74.87,0,0,1-2.58-8.25c-.19-2-.46-2.14-2.56-1.19a15.65,15.65,0,0,1-5.32,1.25A15.6,15.6,0,0,1,97.54,1C95.44,0,95.17.15,95,2.17c-.13,1.4-2.15,7.07-2.58,8.25s.7,1.58,1.51.77c.39-.39,2.6-2.57,3-2.92a2.71,2.71,0,0,1,1.74-.75c2.88,0,1.94,6.49-1.14,9.34,4.61,4.36,3.5,13.82-.54,14.3a3.16,3.16,0,0,0,3,2.15,3.43,3.43,0,0,0,2.14-.75.84.84,0,0,1,1.35,0,3.32,3.32,0,0,0,2.15.75,3.14,3.14,0,0,0,3-2.15c-4-.48-5.15-9.94-.54-14.3C105,14,104.14,7.52,107,7.52ZM66.47,2.57c3.65.48,4.66,9.93.49,14.29,4.17,4.36,3.16,13.82-.49,14.3a2.9,2.9,0,0,0,2.71,2.15,2.93,2.93,0,0,0,1.94-.75c.44-.44.78-.46,1.22,0a2.82,2.82,0,0,0,1.94.75A2.9,2.9,0,0,0,77,31.16c-3.49-.58-4.49-8.61-1.42-14.3,7.77,5.51,7.48,13.35,3.79,14.3a2.88,2.88,0,0,0,2.7,2.15,3,3,0,0,0,2-.75c.44-.44.78-.46,1.21,0a2.83,2.83,0,0,0,2,.75,2.89,2.89,0,0,0,2.7-2.15c-3.65-.48-4.66-9.94-.49-14.3-4.17-4.36-3.16-13.81.49-14.29a2.83,2.83,0,0,0-4.65-1.41c-.43.46-.77.44-1.21,0a3,3,0,0,0-2-.74,2.87,2.87,0,0,0-2.7,2.15c2.91.3,4.23,6.77,2.3,11.39C76.77,10.64,73.82,3.17,72,1.38a4,4,0,0,0-2.56-1A3.06,3.06,0,0,0,66.47,2.57Z"/></g></g></svg>