<svg xmlns="http://www.w3.org/2000/svg" viewBox="0 0 315.17 36"><defs><style>.cls-1{fill:#f49c00;}</style></defs><title>アセット 1</title><g id="レイヤー_2" data-name="レイヤー 2"><g id="コンテンツ"><path class="cls-1" d="M152.58,14.54a8.59,8.59,0,0,1,1.64-2.86,7.6,7.6,0,0,1,2.64-1.91,8.69,8.69,0,0,1,3.53-.69,8.59,8.59,0,0,1,3.53.69,7.56,7.56,0,0,1,2.63,1.91,8.44,8.44,0,0,1,1.65,2.86,10.68,10.68,0,0,1,.57,3.54,10.37,10.37,0,0,1-.57,3.48,8.31,8.31,0,0,1-1.65,2.81,7.59,7.59,0,0,1-2.63,1.87,8.58,8.58,0,0,1-3.53.68,8.68,8.68,0,0,1-3.53-.68,7.63,7.63,0,0,1-2.64-1.87,8.46,8.46,0,0,1-1.64-2.81,10.13,10.13,0,0,1-.58-3.48A10.43,10.43,0,0,1,152.58,14.54ZM156,20.17a5.82,5.82,0,0,0,.8,1.83,4.1,4.1,0,0,0,1.44,1.3,5,5,0,0,0,4.3,0A4.06,4.06,0,0,0,164,22a5.6,5.6,0,0,0,.8-1.83,8.48,8.48,0,0,0,.25-2.09,9.2,9.2,0,0,0-.25-2.17A5.77,5.77,0,0,0,164,14a4.09,4.09,0,0,0-1.43-1.31,5,5,0,0,0-4.3,0A4.12,4.12,0,0,0,156.8,14a6,6,0,0,0-.8,1.88,9.76,9.76,0,0,0-.25,2.17A9,9,0,0,0,156,20.17Z"/><path class="cls-1" d="M174.92,9.74l6.54,11h0v-11h4v17H182l-7.09-11h.61v11h-4v-17Z"/><path class="cls-1" d="M192.5,9.74v14h8v3h-12v-17Z"/><path class="cls-1" d="M207.5,9.74v17h-4v-17Z"/><path class="cls-1" d="M213.27,9.74l7.19,11h0v-11h4v17h-3.6l-7.09-11h-.31v11h-4v-17Z"/><path class="cls-1" d="M240.5,9.74v3h-9v4h8v3h-8v4h9v3h-13v-17Z"/><path class="cls-1" d="M253.1,22.12a2.51,2.51,0,0,0,.78.92,3.47,3.47,0,0,0,1.15.53,5.57,5.57,0,0,0,1.36.17,7.73,7.73,0,0,0,1-.08,3.89,3.89,0,0,0,1-.31,2.21,2.21,0,0,0,.79-.62,1.56,1.56,0,0,0,.32-1,1.42,1.42,0,0,0-.42-1.06A3.4,3.4,0,0,0,258,20a10.57,10.57,0,0,0-1.55-.47c-.57-.14-1.16-.29-1.75-.46a15.75,15.75,0,0,1-1.77-.55,5.89,5.89,0,0,1-1.54-.86,3.89,3.89,0,0,1-1.11-1.3,4,4,0,0,1-.42-1.9,4.21,4.21,0,0,1,.54-2.17,4.78,4.78,0,0,1,1.39-1.54,6.16,6.16,0,0,1,2-.9,8.18,8.18,0,0,1,2.18-.3,10.25,10.25,0,0,1,2.44.28,6.14,6.14,0,0,1,2.08.92,4.73,4.73,0,0,1,1.45,1.63,5.06,5.06,0,0,1,.53,2.4H259a2.94,2.94,0,0,0-.31-1.21,2,2,0,0,0-.69-.75,2.88,2.88,0,0,0-1-.38,5.8,5.8,0,0,0-1.22-.12,4.19,4.19,0,0,0-.86.09,2.39,2.39,0,0,0-.79.32,2.1,2.1,0,0,0-.58.57,1.55,1.55,0,0,0-.22.86,1.5,1.5,0,0,0,.18.78,1.63,1.63,0,0,0,.71.54,8.38,8.38,0,0,0,1.48.5l2.47.64q.45.09,1.26.33a6,6,0,0,1,1.6.76,4.85,4.85,0,0,1,1.38,1.4,4,4,0,0,1,.58,2.24,4.88,4.88,0,0,1-.44,2.06A4.35,4.35,0,0,1,261.29,25a6.26,6.26,0,0,1-2.11,1.08,9.93,9.93,0,0,1-2.92.39,10.26,10.26,0,0,1-2.61-.33,6.49,6.49,0,0,1-2.22-1,5,5,0,0,1-1.54-1.79,5.29,5.29,0,0,1-.54-2.59h3.45A2.9,2.9,0,0,0,253.1,22.12Z"/><path class="cls-1" d="M269.5,9.74v6h7v-6h4v17h-4v-7h-7v7h-4v-17Z"/><path class="cls-1" d="M283.11,14.54a8.79,8.79,0,0,1,1.65-2.86,7.6,7.6,0,0,1,2.64-1.91,9.37,9.37,0,0,1,7.06,0,7.56,7.56,0,0,1,2.63,1.91,8.44,8.44,0,0,1,1.65,2.86,10.68,10.68,0,0,1,.57,3.54,10.37,10.37,0,0,1-.57,3.48,8.31,8.31,0,0,1-1.65,2.81,7.59,7.59,0,0,1-2.63,1.87,9.5,9.5,0,0,1-7.06,0,7.63,7.63,0,0,1-2.64-1.87,8.65,8.65,0,0,1-1.65-2.81,10.37,10.37,0,0,1-.57-3.48A10.68,10.68,0,0,1,283.11,14.54Zm3.43,5.63a5.82,5.82,0,0,0,.8,1.83,4.1,4.1,0,0,0,1.44,1.3,4.3,4.3,0,0,0,2.15.49,4.35,4.35,0,0,0,2.15-.49,4.15,4.15,0,0,0,1.43-1.3,5.6,5.6,0,0,0,.8-1.83,8.48,8.48,0,0,0,.25-2.09,9.2,9.2,0,0,0-.25-2.17,5.77,5.77,0,0,0-.8-1.88,4.18,4.18,0,0,0-1.43-1.31,4.35,4.35,0,0,0-2.15-.49,4.3,4.3,0,0,0-2.15.49A4.12,4.12,0,0,0,287.34,14a6,6,0,0,0-.8,1.88,9.2,9.2,0,0,0-.25,2.17A8.48,8.48,0,0,0,286.54,20.17Z"/><path class="cls-1" d="M309.24,9.74a7,7,0,0,1,2.74.47,5.08,5.08,0,0,1,1.83,1.23,4.92,4.92,0,0,1,1,1.76,6.6,6.6,0,0,1,.32,2,6.73,6.73,0,0,1-.32,2,4.83,4.83,0,0,1-1,1.76A5.1,5.1,0,0,1,312,20.27a7.23,7.23,0,0,1-2.74.47H305.5v6h-4v-17Zm-.89,8a6.93,6.93,0,0,0,1.22-.1,2.8,2.8,0,0,0,1-.36,2,2,0,0,0,.71-.76,2.62,2.62,0,0,0,.27-1.28,2.69,2.69,0,0,0-.27-1.29,2,2,0,0,0-.71-.76,2.8,2.8,0,0,0-1-.36,8,8,0,0,0-1.22-.09H305.5v5Z"/><path class="cls-1" d="M136.34,10.57c1.48-.39,2.35-1.29,2.35-3.36A3.57,3.57,0,0,0,135,4a3.62,3.62,0,0,0-3.53,3.54c0,8.31,15.86,6.86,15.86,18.43,0,6.05-5.1,10-10.53,10s-9.13-2.12-10.77-7.26a4.34,4.34,0,0,0-3.52-3,3.58,3.58,0,0,1,5.61-1.52.91.91,0,0,0,1.46,0,3.7,3.7,0,0,1,2.34-.8,3.28,3.28,0,0,1,3.17,2.32,2.79,2.79,0,0,0-2.55,2.7c-.06,1.94,1.28,3.12,3.5,3.12,2.4,0,3.74-1.57,3.74-4.23,0-9-14.27-7.1-14.27-17.8,0-5.45,3.53-9.53,9.63-9.53,4.8,0,8.08,2.41,9.77,7.11.82,2.28,1.78,3.28,3.14,3.46a3.14,3.14,0,0,1-2.94,2.32,3,3,0,0,1-2.05-.81.87.87,0,0,0-1.46,0,3,3,0,0,1-2.18.81A3.27,3.27,0,0,1,136.34,10.57ZM67.64,36a3.62,3.62,0,0,1-2.32-.8.9.9,0,0,0-1.45,0,3.7,3.7,0,0,1-2.32.8,3.39,3.39,0,0,1-3.24-2.32c1.24,0,2.55-1.41,2.55-3.34C60.86,27.85,59.29,26,57,26S53,27.85,53,30.33c0,1.93,1.31,3.34,2.56,3.34A3.41,3.41,0,0,1,52.35,36a3.68,3.68,0,0,1-2.32-.8.91.91,0,0,0-1.46,0,3.6,3.6,0,0,1-2.32.8A3.41,3.41,0,0,1,43,33.67c4.69-.44,8.19-11.89,4.53-15.45,6.38-4,7.48-14.17,3.12-15.45A3.42,3.42,0,0,1,53.9.45a3.71,3.71,0,0,1,2.32.81.92.92,0,0,0,1.46,0A3.58,3.58,0,0,1,60,.45a3.43,3.43,0,0,1,3.24,2.32C58.87,4.05,60,14.17,66.35,18.22c-3.65,3.56-.16,15,4.53,15.45A3.39,3.39,0,0,1,67.64,36ZM57,14.05c-3.62,2.86-3.37,8.52,0,8.52S60.57,16.91,57,14.05ZM18.07,34.53a.9.9,0,0,1,1.45,0A5.41,5.41,0,0,0,23.1,36a3.46,3.46,0,0,0,3.33-2.29c-4.68-.14-5.17-10.69.45-11.57a3.39,3.39,0,0,0-3.24-2.32,3.6,3.6,0,0,0-2.32.8.91.91,0,0,1-1.46,0,3.68,3.68,0,0,0-2.32-.8,3.39,3.39,0,0,0-3.23,2.32c6.13,1,3.37,9.09-1,9.09-5.44,0-6.29-9.54-1.95-13C6.94,14.67,7.83,4.83,13.34,4.83c4.27,0,6.06,5.91,1,8.68a3.39,3.39,0,0,0,3.23,2.32,3.58,3.58,0,0,0,2.32-.8.91.91,0,0,1,1.46,0,3.7,3.7,0,0,0,2.32.8,3.39,3.39,0,0,0,3.24-2.32c-1.43-.4-2.62-1.72-3.13-4.47-1-5.42-5.15-9-10.27-9C6.75,0,3.22,5.22,2.74,10.32,2.49,13,1.5,17,0,18.22c1.6,1.33,2.52,4.6,2.74,7.53C3.22,31.79,7.56,36,13.48,36A7.59,7.59,0,0,0,18.07,34.53ZM38.82.45a3.6,3.6,0,0,0-2.32.81.91.91,0,0,1-1.45,0A3.74,3.74,0,0,0,32.72.45a3.43,3.43,0,0,0-3.24,2.32c4.37.52,5.58,10.74.59,15.45,5,4.71,3.78,14.93-.59,15.45A3.41,3.41,0,0,0,32.72,36a3.73,3.73,0,0,0,2.33-.8.9.9,0,0,1,1.45,0,3.6,3.6,0,0,0,2.32.8,3.4,3.4,0,0,0,3.24-2.32c-4.37-.52-5.57-10.74-.59-15.45-5-4.71-3.78-14.93.59-15.45A3.42,3.42,0,0,0,38.82.45Zm76.85,7.67a3,3,0,0,1,1.89.82c.48.38,2.87,2.73,3.29,3.15.87.88,2,.31,1.62-.83s-2.64-7.4-2.78-8.92c-.21-2.18-.51-2.31-2.78-1.28a17.06,17.06,0,0,1-5.75,1.35,17.06,17.06,0,0,1-5.75-1.35c-2.26-1-2.56-.9-2.77,1.28-.14,1.52-2.32,7.64-2.79,8.92s.75,1.71,1.63.83c.42-.42,2.81-2.77,3.29-3.15a3,3,0,0,1,1.88-.82c3.13,0,2.1,7-1.22,10.1,5,4.71,3.78,14.93-.59,15.45A3.41,3.41,0,0,0,108.08,36a3.7,3.7,0,0,0,2.32-.8.91.91,0,0,1,1.46,0,3.58,3.58,0,0,0,2.32.8,3.41,3.41,0,0,0,3.24-2.32c-4.37-.52-5.58-10.74-.59-15.45C113.5,15.14,112.55,8.12,115.67,8.12ZM71.84,2.77c3.94.52,5,10.74.53,15.45,4.5,4.71,3.41,14.93-.53,15.45a3,3,0,0,0,5,1.52c.47-.48.85-.5,1.32,0a3.05,3.05,0,0,0,2.1.8,3.1,3.1,0,0,0,2.92-2.32c-3.76-.62-4.85-9.3-1.52-15.45,8.39,6,8.07,14.43,4.08,15.45a3.06,3.06,0,0,0,5,1.52c.47-.48.84-.5,1.31,0a3.06,3.06,0,0,0,5-1.52c-3.95-.52-5-10.74-.53-15.45-4.51-4.71-3.42-14.93.53-15.45A3.13,3.13,0,0,0,94.2.45a3.1,3.1,0,0,0-2.1.81c-.47.49-.84.47-1.31,0a3,3,0,0,0-5,1.51c3.15.33,4.57,7.33,2.49,12.32C83,11.5,79.78,3.43,77.78,1.5A4.29,4.29,0,0,0,75,.45,3.31,3.31,0,0,0,71.84,2.77Z"/></g></g></svg>