<svg xmlns="http://www.w3.org/2000/svg" viewBox="0 0 151.98 36.95"><defs><style>.cls-1{fill:#fff;}</style></defs><title>アセット 15</title><g id="レイヤー_2" data-name="レイヤー 2"><g id="ヘッダー"><path class="cls-1" d="M139.94,10.85c1.53-.4,2.42-1.32,2.42-3.45a3.66,3.66,0,0,0-3.77-3.31A3.71,3.71,0,0,0,135,7.72c0,8.53,16.28,7,16.28,18.91C151.24,32.85,146,37,140.43,37s-9.38-2.18-11.06-7.46a4.44,4.44,0,0,0-3.6-3.07,3.63,3.63,0,0,1,3.4-2.38,3.68,3.68,0,0,1,2.35.82.93.93,0,0,0,1.5,0,3.79,3.79,0,0,1,2.41-.82,3.35,3.35,0,0,1,3.24,2.38,2.86,2.86,0,0,0-2.61,2.78c-.06,2,1.32,3.19,3.59,3.19,2.47,0,3.84-1.61,3.84-4.33,0-9.25-14.65-7.29-14.65-18.28,0-5.59,3.63-9.78,9.89-9.78,4.93,0,8.29,2.47,10,7.3.84,2.34,1.83,3.37,3.23,3.55a3.23,3.23,0,0,1-3,2.38,3.09,3.09,0,0,1-2.11-.83.89.89,0,0,0-1.49,0,3.07,3.07,0,0,1-2.24.83A3.36,3.36,0,0,1,139.94,10.85ZM69.43,37a3.71,3.71,0,0,1-2.38-.83.93.93,0,0,0-1.49,0,3.82,3.82,0,0,1-2.38.83,3.5,3.5,0,0,1-3.33-2.39c1.28,0,2.62-1.45,2.62-3.43,0-2.55-1.61-4.46-4-4.46s-4,1.91-4,4.46c0,2,1.34,3.43,2.62,3.43A3.5,3.5,0,0,1,53.73,37a3.82,3.82,0,0,1-2.38-.83.93.93,0,0,0-1.49,0,3.71,3.71,0,0,1-2.38.83,3.5,3.5,0,0,1-3.33-2.39c4.81-.45,8.4-12.21,4.65-15.85C55.34,14.54,56.48,4.16,52,2.85A3.5,3.5,0,0,1,55.32.46a3.82,3.82,0,0,1,2.39.83.93.93,0,0,0,1.49,0A3.71,3.71,0,0,1,61.58.46a3.5,3.5,0,0,1,3.33,2.39c-4.48,1.31-3.34,11.69,3.2,15.86-3.75,3.64-.17,15.4,4.65,15.85A3.5,3.5,0,0,1,69.43,37Zm-11-22.53c-3.71,2.93-3.45,8.75,0,8.75S62.17,17.35,58.45,14.42Zm-39.91,21a.94.94,0,0,1,1.5,0A5.51,5.51,0,0,0,23.71,37a3.54,3.54,0,0,0,3.42-2.34c-4.8-.15-5.31-11,.46-11.89a3.5,3.5,0,0,0-3.32-2.38,3.7,3.7,0,0,0-2.38.82.93.93,0,0,1-1.5,0A3.81,3.81,0,0,0,18,20.34a3.5,3.5,0,0,0-3.33,2.38c6.3,1,3.47,9.34-1,9.34-5.58,0-6.45-9.8-2-13.35C7.12,15.06,8,5,13.69,5c4.39,0,6.22,6.06,1,8.91A3.5,3.5,0,0,0,18,16.25a3.7,3.7,0,0,0,2.38-.82.93.93,0,0,1,1.5,0,3.81,3.81,0,0,0,2.38.82,3.5,3.5,0,0,0,3.32-2.38c-1.46-.41-2.68-1.77-3.21-4.59C23.35,3.72,19.09,0,13.84,0,6.93,0,3.31,5.36,2.82,10.59,2.56,13.33,1.54,17.43,0,18.71c1.65,1.36,2.58,4.72,2.82,7.73C3.3,32.63,7.76,37,13.84,37A7.75,7.75,0,0,0,18.54,35.44ZM39.85.46a3.71,3.71,0,0,0-2.38.83.94.94,0,0,1-1.5,0A3.82,3.82,0,0,0,33.59.46a3.5,3.5,0,0,0-3.33,2.39c4.49.53,5.72,11,.61,15.86C36,23.54,34.75,34,30.26,34.56A3.5,3.5,0,0,0,33.59,37,3.82,3.82,0,0,0,36,36.12a.94.94,0,0,1,1.5,0,3.71,3.71,0,0,0,2.38.83,3.5,3.5,0,0,0,3.32-2.39c-4.48-.53-5.72-11-.6-15.85-5.12-4.84-3.88-15.33.6-15.86A3.5,3.5,0,0,0,39.85.46Zm78.88,7.88a3.06,3.06,0,0,1,1.94.84c.49.39,3,2.8,3.37,3.23.9.9,2.1.32,1.67-.85S123,4,122.85,2.4C122.64.16,122.34,0,120,1.08a17.24,17.24,0,0,1-5.9,1.39,17.24,17.24,0,0,1-5.91-1.39c-2.33-1-2.63-.92-2.84,1.32-.15,1.56-2.39,7.85-2.87,9.16s.78,1.75,1.68.85c.42-.43,2.88-2.84,3.38-3.23a3,3,0,0,1,1.92-.84c3.21,0,2.16,7.2-1.25,10.37,5.11,4.83,3.88,15.32-.6,15.85A3.49,3.49,0,0,0,110.94,37a3.82,3.82,0,0,0,2.38-.83.94.94,0,0,1,1.5,0,3.71,3.71,0,0,0,2.38.83,3.49,3.49,0,0,0,3.32-2.39c-4.48-.53-5.72-11-.6-15.85C116.51,15.54,115.53,8.34,118.73,8.34Zm-45-5.49c4.05.53,5.17,11,.54,15.86,4.63,4.83,3.51,15.32-.54,15.85a3.2,3.2,0,0,0,3,2.39,3.28,3.28,0,0,0,2.16-.83c.48-.49.87-.51,1.35,0A3.16,3.16,0,0,0,82.4,37a3.21,3.21,0,0,0,3-2.39c-3.87-.64-5-9.55-1.57-15.85,8.62,6.1,8.29,14.8,4.19,15.85a3.13,3.13,0,0,0,5.16,1.56c.49-.49.87-.51,1.35,0A3.16,3.16,0,0,0,96.7,37a3.2,3.2,0,0,0,3-2.39c-4-.53-5.17-11-.55-15.85-4.62-4.84-3.5-15.33.55-15.86a3.2,3.2,0,0,0-3-2.39,3.16,3.16,0,0,0-2.16.83c-.48.51-.86.49-1.35,0A3.13,3.13,0,0,0,88,2.85c3.24.33,4.69,7.52,2.55,12.64-5.41-3.69-8.68-12-10.75-13.95A4.35,4.35,0,0,0,77,.46,3.39,3.39,0,0,0,73.74,2.85Z"/></g></g></svg>