<svg xmlns="http://www.w3.org/2000/svg" viewBox="0 0 248 62.85"><defs><style>.cls-1{fill:#f49c00;}.cls-2{fill:#231815;}</style></defs><title>アセット 1</title><g id="レイヤー_2" data-name="レイヤー 2"><g id="レイヤー_1-2" data-name="レイヤー 1"><path class="cls-1" d="M24.52,22.53a1.67,1.67,0,0,0-.79,2,7.27,7.27,0,0,0,6.94,5,7.52,7.52,0,0,0,5-1.79l0,0,.07.07a7.72,7.72,0,0,0,5,1.76,7.26,7.26,0,0,0,6.93-5,1.67,1.67,0,0,0-1.13-2.17c-2-.56-3.32-2.61-4-6.07C40.77,6.56,33.29,0,24,0,11.81,0,5.38,9.63,4.54,18.57c-.42,4.52-2,10.37-3.93,11.93A1.66,1.66,0,0,0,0,31.79a1.68,1.68,0,0,0,.61,1.3c2,1.61,3.53,6.14,3.93,11.28C5.39,55.25,13.37,62.85,24,62.85c3.23,0,6.89-1.21,8.71-2.87l.07-.06,0,0a10.6,10.6,0,0,0,7.09,2.9,7.37,7.37,0,0,0,7-4.82A1.68,1.68,0,0,0,45.4,55.7c-2.7-.08-4.15-3.49-4.35-6.62-.25-4,1.31-8.53,5.31-9.16a1.7,1.7,0,0,0,1.18-.8,1.65,1.65,0,0,0,.14-1.42,7.28,7.28,0,0,0-6.93-5,7.57,7.57,0,0,0-5,1.79l0,0-.07-.06a7.73,7.73,0,0,0-5-1.77,7.3,7.3,0,0,0-6.94,5,1.72,1.72,0,0,0,.14,1.42,1.69,1.69,0,0,0,1.19.8c4.16.66,4.57,3.51,4.44,5.15-.24,3.09-2.77,6.53-5.78,6.53-3.32,0-4.81-2.83-5.4-4.52-1.5-4.28-.69-10.84,3.24-14a1.69,1.69,0,0,0,.63-1.32,1.67,1.67,0,0,0-.63-1.31c-4-3.24-4.88-10-3.32-14.48.6-1.74,2.12-4.65,5.48-4.65a4.9,4.9,0,0,1,4.88,3.76C29.16,17.32,28.38,20.42,24.52,22.53Zm-.8-12.86c-9.1,0-10.58,16.25-3.21,22.12-7.17,5.72-5.77,21.5,3.21,21.5,7.17,0,11.73-13.43,1.6-15a5.62,5.62,0,0,1,5.35-3.83,6.1,6.1,0,0,1,3.83,1.32,1.5,1.5,0,0,0,2.41,0,6,6,0,0,1,3.84-1.32,5.62,5.62,0,0,1,5.35,3.83c-9.29,1.47-8.47,18.89-.75,19.13a5.7,5.7,0,0,1-5.49,3.77,9,9,0,0,1-5.92-2.42,1.5,1.5,0,0,0-2.41,0C30,60.1,26.82,61.16,24,61.16c-9.79,0-17-6.95-17.74-16.92C5.84,39.39,4.33,34,1.68,31.79c2.48-2.05,4.12-8.64,4.54-13.06.78-8.42,6.62-17,17.74-17,8.45,0,15.3,6,17,14.94.84,4.55,2.81,6.72,5.17,7.39a5.62,5.62,0,0,1-5.35,3.83,6.1,6.1,0,0,1-3.84-1.33,1.51,1.51,0,0,0-2.41,0,5.91,5.91,0,0,1-3.83,1.33A5.62,5.62,0,0,1,25.32,24C33.74,19.43,30.78,9.67,23.72,9.67Z"/><path class="cls-1" d="M162.38,7.93a1.64,1.64,0,0,0,1.2-.76,1.67,1.67,0,0,0,.19-1.41,6.73,6.73,0,0,0-11-3.3A6.91,6.91,0,0,0,148.22.74a6.8,6.8,0,0,0-6.44,5,1.69,1.69,0,0,0,1.43,2.18,3.64,3.64,0,0,1,2.4,2c2.17,3.66,2.21,9.56,1,13.94C142.09,20,138.5,14,135.8,9.45c-1.76-2.94-3.14-5.25-4.44-6.51a8.81,8.81,0,0,0-5.73-2.2,7.16,7.16,0,0,0-6.86,5A1.67,1.67,0,0,0,119,7.17a1.64,1.64,0,0,0,1.2.76c1.3.18,2.5,1.58,3.3,3.86,1.89,5.36,1.12,14.09-3.42,18.84A1.69,1.69,0,0,0,120,33c4.54,4.74,5.31,13.47,3.42,18.83-.8,2.28-2,3.69-3.3,3.86a1.43,1.43,0,0,0-.57.19,1.6,1.6,0,0,0-.63-.2c-2.53-.24-5.37-3.63-7.07-8.43-2.07-5.88-1.82-11.86.6-14.21a1.69,1.69,0,0,0,.5-1.38,1.73,1.73,0,0,0-.77-1.25c-6.39-4.06-9.38-12.28-8.59-17.89.21-1.45.87-4,3-4.6a1.67,1.67,0,0,0,1-.84,1.71,1.71,0,0,0,.09-1.33,7.27,7.27,0,0,0-6.94-5,7.56,7.56,0,0,0-5,1.8l0,0a.19.19,0,0,1-.07-.06,7.77,7.77,0,0,0-5-1.77,7.28,7.28,0,0,0-6.94,5A1.64,1.64,0,0,0,83.89,7a1.69,1.69,0,0,0,1,.85c2.14.63,2.8,3.15,3,4.6.79,5.61-2.2,13.83-8.59,17.89A1.69,1.69,0,0,0,79.06,33c2.42,2.35,2.67,8.32.6,14.2C78,52,75.12,55.4,72.59,55.64a1.6,1.6,0,0,0-.63.2,1.72,1.72,0,0,0-.59-.2c-1.67-.19-3.14-1.84-4-4.52-1.78-5.36-.76-13.6,4-18.1a1.68,1.68,0,0,0,0-2.45c-4.77-4.51-5.79-12.75-4-18.11.88-2.68,2.35-4.32,4-4.52a1.68,1.68,0,0,0,1.39-2.23,7.28,7.28,0,0,0-6.94-5,7.64,7.64,0,0,0-5,1.8l0,0-.07-.06a7.77,7.77,0,0,0-5-1.77,7.29,7.29,0,0,0-6.94,5A1.68,1.68,0,0,0,50.2,7.94c1.67.2,3.14,1.84,4,4.52,1.77,5.36.75,13.6-4,18.11a1.7,1.7,0,0,0-.52,1.22A1.68,1.68,0,0,0,50.22,33c4.76,4.5,5.78,12.74,4,18.1-.89,2.68-2.36,4.33-4,4.52a1.68,1.68,0,0,0-1.39,2.23,7.29,7.29,0,0,0,6.94,5,7.77,7.77,0,0,0,5-1.77l.07-.06,0,0a7.65,7.65,0,0,0,5,1.8A7.25,7.25,0,0,0,72,59.51a7.27,7.27,0,0,0,6.14,3.33,7.68,7.68,0,0,0,5-1.8l0,0,.07.06a7.77,7.77,0,0,0,5,1.77,7.27,7.27,0,0,0,6.93-5,1.68,1.68,0,0,0-1.58-2.24c-1,0-2.54-1.49-2.54-3.84,0-3.29,1.92-5.5,4.78-5.5s4.79,2.21,4.79,5.5c0,2.35-1.5,3.84-2.54,3.84a1.69,1.69,0,0,0-1.59,2.24,7.3,7.3,0,0,0,6.95,5,7.77,7.77,0,0,0,5-1.77l.06-.06,0,0a7.63,7.63,0,0,0,5,1.8,7.27,7.27,0,0,0,6.11-3.29,6.58,6.58,0,0,0,5.66,3.29,6.85,6.85,0,0,0,4.54-1.72,6.91,6.91,0,0,0,4.56,1.72,6.8,6.8,0,0,0,6.44-5,1.64,1.64,0,0,0-.17-1.38,1.66,1.66,0,0,0-1.16-.78c-1.41-.24-2.36-1.62-2.9-2.73-2-4.12-2.19-11.89.72-18.57,7.19,5.76,9.62,12.72,8.77,17.31-.4,2.16-1.51,3.62-3.05,4a1.66,1.66,0,0,0-1.06.81,1.69,1.69,0,0,0-.13,1.32,6.72,6.72,0,0,0,11,3.3,6.73,6.73,0,0,0,11-3.3,1.67,1.67,0,0,0-.19-1.41,1.64,1.64,0,0,0-1.2-.76c-1.3-.17-2.5-1.58-3.3-3.85C157.19,46.43,158,37.7,162.5,33a1.69,1.69,0,0,0,0-2.33c-4.54-4.75-5.31-13.48-3.42-18.84C159.88,9.51,161.09,8.11,162.38,7.93ZM65.82,61.16A6,6,0,0,1,62,59.83a1.49,1.49,0,0,0-2.4,0,6.18,6.18,0,0,1-3.84,1.33,5.63,5.63,0,0,1-5.35-3.84c7.21-.86,9.21-17.74,1-25.53,8.24-7.78,6.24-24.67-1-25.52a5.62,5.62,0,0,1,5.35-3.84,6.12,6.12,0,0,1,3.84,1.33,1.5,1.5,0,0,0,2.4,0,6,6,0,0,1,3.83-1.33,5.63,5.63,0,0,1,5.36,3.84C64,7.12,62,24,70.2,31.79,62,39.58,64,56.46,71.18,57.32A5.64,5.64,0,0,1,65.82,61.16Zm47.63,0a6,6,0,0,1-3.84-1.33,1.49,1.49,0,0,0-2.4,0,6.15,6.15,0,0,1-3.83,1.33A5.64,5.64,0,0,1,98,57.32c2.06,0,4.22-2.34,4.22-5.53,0-4.1-2.59-7.18-6.47-7.18s-6.46,3.08-6.46,7.18c0,3.19,2.16,5.53,4.22,5.53a5.64,5.64,0,0,1-5.35,3.84,6.18,6.18,0,0,1-3.84-1.33,1.49,1.49,0,0,0-2.4,0,6,6,0,0,1-3.84,1.33,5.63,5.63,0,0,1-5.35-3.84c7.75-.73,13.52-19.66,7.48-25.53C90.77,25.1,92.6,8.38,85.38,6.27a5.64,5.64,0,0,1,5.36-3.84,6.07,6.07,0,0,1,3.83,1.33,1.51,1.51,0,0,0,2.41,0,6,6,0,0,1,3.83-1.33,5.62,5.62,0,0,1,5.35,3.84C99,8.38,100.78,25.1,111.31,31.79c-6,5.87-.26,24.8,7.49,25.53A5.63,5.63,0,0,1,113.45,61.16Zm47.83-29.37c-7.44,7.79-5.63,24.67.88,25.53a5,5,0,0,1-8.3,2.51c-.77-.83-1.39-.79-2.17,0a5.23,5.23,0,0,1-3.47,1.33,5.17,5.17,0,0,1-4.84-3.84c6.6-1.69,7.13-15.7-6.75-25.53-5.48,10.16-3.7,24.5,2.53,25.53a5,5,0,0,1-8.31,2.51c-.77-.83-1.39-.79-2.17,0a5.25,5.25,0,0,1-3.46,1.33,5.16,5.16,0,0,1-4.84-3.84c6.51-.86,8.32-17.74.87-25.53,7.45-7.78,5.65-24.67-.87-25.52a5.46,5.46,0,0,1,5.25-3.84,7.07,7.07,0,0,1,4.56,1.73c3.32,3.19,8.58,16.52,17.3,22.46,3.45-8.25,1.1-19.81-4.11-20.35a5,5,0,0,1,8.31-2.51c.78.78,1.4.82,2.17,0a5.08,5.08,0,0,1,3.47-1.33,5.14,5.14,0,0,1,4.83,3.84C155.65,7.12,153.84,24,161.28,31.79Z"/><path class="cls-1" d="M95.77,24.89c-6,4.73-5.56,14.09,0,14.09S101.76,29.62,95.77,24.89Zm2.36,10.56a2.43,2.43,0,0,1-4.71,0c-.78-2.23-.06-5.73,2.35-8.28C98.19,29.72,98.91,33.22,98.13,35.45Z"/><path class="cls-1" d="M236.86,22.83a6.65,6.65,0,0,0,4.59,1.83,6.83,6.83,0,0,0,6.47-5,1.69,1.69,0,0,0-.18-1.42,1.72,1.72,0,0,0-1.21-.77c-1.12-.14-2.46-.8-3.82-4.6C239.69,4.45,233.56,0,225,0c-10.53,0-17.6,7-17.6,17.42,0,10.22,7.13,14.17,13.42,17.66,5.46,3,10.16,5.64,10.16,11.76,0,3.52-1.51,5.3-4.49,5.3a4.52,4.52,0,0,1-3.33-1.08,3.08,3.08,0,0,1-.77-2.33c.05-1.55,1-2.48,2.86-2.87a1.63,1.63,0,0,0,1.11-.8,1.66,1.66,0,0,0,.16-1.36,7.07,7.07,0,0,0-6.84-5,7.85,7.85,0,0,0-5,1.79l0,0-.05-.05a7.59,7.59,0,0,0-12,3.14,1.69,1.69,0,0,0,1.31,2.26,5.51,5.51,0,0,1,4.47,3.79c2.82,8.87,9.17,13.18,19.4,13.18a20,20,0,0,0,13.19-5,17.67,17.67,0,0,0,5.9-13.31c0-11.36-8.67-15.92-15.63-19.58l-1.13-.6a7,7,0,0,0,2,.29A6.68,6.68,0,0,0,236.86,22.83Zm-11.51-3.16A7.34,7.34,0,0,0,227.53,23c-4-2.3-6.93-4.78-6.93-8.87A4.27,4.27,0,0,1,224.76,10c2.29,0,4.38,1.73,4.38,3.64,0,2.71-1,3.49-2.62,3.92a1.73,1.73,0,0,0-1.06.83A1.67,1.67,0,0,0,225.35,19.67Zm1.59-.53c2.46-.64,3.89-2.12,3.89-5.55,0-2.83-2.83-5.32-6.07-5.32a6,6,0,0,0-5.84,5.84c0,13.73,26.21,11.33,26.21,30.44,0,10-8.43,16.61-17.4,16.61s-15.09-3.52-17.8-12a7.17,7.17,0,0,0-5.81-4.94,5.88,5.88,0,0,1,5.48-3.84,6,6,0,0,1,3.79,1.33,1.5,1.5,0,0,0,2.41,0,6.11,6.11,0,0,1,3.87-1.33,5.42,5.42,0,0,1,5.23,3.84c-2.9.6-4.14,2.38-4.2,4.47-.11,3.2,2.11,5.15,5.78,5.15,4,0,6.18-2.6,6.18-7,0-14.88-23.58-11.73-23.58-29.42,0-9,5.83-15.74,15.91-15.74,7.93,0,13.35,4,16.14,11.75,1.35,3.77,2.93,5.42,5.19,5.71A5.2,5.2,0,0,1,241.45,23a5,5,0,0,1-3.38-1.33,1.44,1.44,0,0,0-2.41,0,5,5,0,0,1-3.6,1.33A5.42,5.42,0,0,1,226.94,19.14Z"/><path class="cls-1" d="M192.8,16.79a3.31,3.31,0,0,1,2.08,1c.64.5,4.23,4,5.28,5.07a3.48,3.48,0,0,0,4.35.73,3.12,3.12,0,0,0,1.11-3.87c-1.71-4.74-4.33-12.46-4.51-14.32s-.44-3.54-1.77-4.31-3-.2-5.18.82A26.29,26.29,0,0,1,185.35,4a26.23,26.23,0,0,1-8.8-2.08c-2.24-1-3.8-1.62-5.18-.82s-1.59,2.34-1.77,4.31-3.13,10.5-4.52,14.32a3.12,3.12,0,0,0,1.12,3.87,3.46,3.46,0,0,0,4.34-.73c1.26-1.26,4.68-4.59,5.3-5.08a3.3,3.3,0,0,1,2.06-1c.36,0,.77.07,1.1.9,1.13,2.88-.65,9.52-4.27,12.87a1.7,1.7,0,0,0,0,2.46c4.77,4.5,5.79,12.74,4,18.1-.88,2.68-2.35,4.33-4,4.52a1.68,1.68,0,0,0-1.39,2.23,7.28,7.28,0,0,0,6.94,5,7.77,7.77,0,0,0,5-1.77l.07-.06,0,0a7.59,7.59,0,0,0,5,1.8,7.27,7.27,0,0,0,6.93-5,1.68,1.68,0,0,0-1.39-2.23c-1.67-.19-3.14-1.84-4-4.52-1.78-5.36-.76-13.6,4-18.1a1.68,1.68,0,0,0,0-2.46c-3.58-3.32-5.32-9.94-4.19-12.83C192,16.86,192.43,16.79,192.8,16.79Zm1.91,15c-8.23,7.79-6.24,24.67,1,25.53a5.63,5.63,0,0,1-5.34,3.84,6,6,0,0,1-3.84-1.33,1.5,1.5,0,0,0-2.41,0,6.15,6.15,0,0,1-3.83,1.33,5.63,5.63,0,0,1-5.35-3.84c7.21-.86,9.2-17.74,1-25.53,5.49-5.09,7.18-16.68,2-16.68a5,5,0,0,0-3.11,1.34c-.8.63-4.75,4.52-5.44,5.21-1.44,1.45-3.37.51-2.69-1.37.77-2.11,4.37-12.23,4.61-14.74.35-3.61.84-3.82,4.58-2.12a28,28,0,0,0,9.5,2.23,28.08,28.08,0,0,0,9.51-2.23c3.74-1.7,4.23-1.49,4.57,2.12.24,2.51,3.85,12.63,4.61,14.74.69,1.88-1.24,2.82-2.69,1.37-.68-.69-4.63-4.58-5.44-5.21a4.91,4.91,0,0,0-3.11-1.34C187.64,15.11,189.22,26.7,194.71,31.79Z"/><path class="cls-2" d="M226.94,19.14c2.46-.64,3.89-2.12,3.89-5.55,0-2.83-2.83-5.32-6.07-5.32a6,6,0,0,0-5.84,5.84c0,13.73,26.21,11.33,26.21,30.44,0,10-8.43,16.61-17.4,16.61s-15.09-3.52-17.8-12a7.17,7.17,0,0,0-5.81-4.94,5.88,5.88,0,0,1,5.48-3.84,6,6,0,0,1,3.79,1.33,1.49,1.49,0,0,0,2.4,0,6.16,6.16,0,0,1,3.88-1.33,5.42,5.42,0,0,1,5.23,3.84c-2.9.6-4.14,2.38-4.2,4.47-.11,3.2,2.11,5.15,5.78,5.15,4,0,6.18-2.6,6.18-7,0-14.88-23.58-11.73-23.58-29.42,0-9,5.83-15.74,15.91-15.74,7.93,0,13.35,4,16.14,11.75,1.35,3.77,2.93,5.42,5.19,5.71A5.2,5.2,0,0,1,241.46,23a5,5,0,0,1-3.39-1.33,1.44,1.44,0,0,0-2.41,0,5,5,0,0,1-3.6,1.33A5.42,5.42,0,0,1,226.94,19.14Zm-113.49,42a6,6,0,0,1-3.84-1.33,1.49,1.49,0,0,0-2.4,0,6.15,6.15,0,0,1-3.83,1.33A5.64,5.64,0,0,1,98,57.32c2.06,0,4.22-2.34,4.22-5.53,0-4.1-2.59-7.18-6.47-7.18s-6.46,3.08-6.46,7.18c0,3.19,2.16,5.53,4.22,5.53a5.64,5.64,0,0,1-5.35,3.84,6.16,6.16,0,0,1-3.84-1.33,1.49,1.49,0,0,0-2.4,0,6,6,0,0,1-3.84,1.33,5.63,5.63,0,0,1-5.35-3.84c7.75-.73,13.52-19.66,7.49-25.53C90.77,25.1,92.6,8.38,85.38,6.27a5.64,5.64,0,0,1,5.36-3.84,6.07,6.07,0,0,1,3.83,1.33,1.51,1.51,0,0,0,2.41,0,6,6,0,0,1,3.83-1.33,5.62,5.62,0,0,1,5.35,3.84C99,8.38,100.78,25.1,111.31,31.79c-6,5.87-.26,24.8,7.49,25.53A5.63,5.63,0,0,1,113.45,61.16ZM95.77,24.89c-6,4.73-5.56,14.09,0,14.09S101.76,29.62,95.77,24.89ZM31.53,58.74a1.5,1.5,0,0,1,2.41,0,9,9,0,0,0,5.92,2.42,5.7,5.7,0,0,0,5.49-3.77c-7.72-.24-8.54-17.66.75-19.13a5.62,5.62,0,0,0-5.35-3.83,6,6,0,0,0-3.84,1.32,1.5,1.5,0,0,1-2.41,0,6.1,6.1,0,0,0-3.83-1.32,5.62,5.62,0,0,0-5.35,3.83c10.13,1.6,5.57,15-1.6,15-9,0-10.38-15.78-3.21-21.5-7.37-5.87-5.89-22.12,3.21-22.12,7.06,0,10,9.76,1.6,14.34a5.62,5.62,0,0,0,5.35,3.83,5.91,5.91,0,0,0,3.83-1.33,1.51,1.51,0,0,1,2.41,0,6.1,6.1,0,0,0,3.84,1.33A5.62,5.62,0,0,0,46.1,24c-2.36-.67-4.33-2.84-5.17-7.39-1.67-9-8.52-14.94-17-14.94-11.12,0-17,8.63-17.74,17.05-.42,4.42-2.06,11-4.54,13.06C4.33,34,5.84,39.39,6.22,44.24c.78,10,8,16.92,17.74,16.92C26.82,61.16,30,60.1,31.53,58.74ZM65.82,2.43A6,6,0,0,0,62,3.76a1.5,1.5,0,0,1-2.4,0,6.12,6.12,0,0,0-3.84-1.33A5.62,5.62,0,0,0,50.4,6.27c7.21.85,9.2,17.74,1,25.52,8.23,7.79,6.24,24.67-1,25.53a5.63,5.63,0,0,0,5.35,3.84,6.18,6.18,0,0,0,3.84-1.33,1.49,1.49,0,0,1,2.4,0,6,6,0,0,0,3.83,1.33,5.64,5.64,0,0,0,5.36-3.84C64,56.46,62,39.58,70.2,31.79,62,24,64,7.12,71.18,6.27A5.63,5.63,0,0,0,65.82,2.43Zm127,12.68a4.91,4.91,0,0,1,3.11,1.34c.81.63,4.76,4.52,5.44,5.21,1.45,1.45,3.38.51,2.69-1.37-.76-2.11-4.37-12.23-4.61-14.74-.34-3.61-.83-3.82-4.57-2.12a28.08,28.08,0,0,1-9.51,2.23,28,28,0,0,1-9.5-2.23c-3.74-1.7-4.23-1.49-4.58,2.12-.24,2.51-3.84,12.63-4.61,14.74-.68,1.88,1.25,2.82,2.69,1.37.69-.69,4.64-4.58,5.44-5.21a5,5,0,0,1,3.11-1.34c5.16,0,3.47,11.59-2,16.68,8.23,7.79,6.24,24.67-1,25.53a5.63,5.63,0,0,0,5.35,3.84,6.15,6.15,0,0,0,3.83-1.33,1.5,1.5,0,0,1,2.41,0,6,6,0,0,0,3.84,1.33,5.63,5.63,0,0,0,5.34-3.84c-7.21-.86-9.2-17.74-1-25.53C189.22,26.7,187.64,15.11,192.8,15.11ZM120.38,6.27c6.52.85,8.32,17.74.87,25.52,7.45,7.79,5.64,24.67-.87,25.53a5.16,5.16,0,0,0,4.84,3.84,5.25,5.25,0,0,0,3.46-1.33c.78-.79,1.4-.83,2.17,0a5,5,0,0,0,8.31-2.51c-6.23-1-8-15.37-2.53-25.53,13.88,9.83,13.35,23.84,6.75,25.53a5.17,5.17,0,0,0,4.84,3.84,5.23,5.23,0,0,0,3.47-1.33c.78-.79,1.4-.83,2.17,0a5,5,0,0,0,8.3-2.51c-6.51-.86-8.32-17.74-.88-25.53-7.44-7.78-5.63-24.67.88-25.52a5.14,5.14,0,0,0-4.83-3.84,5.08,5.08,0,0,0-3.47,1.33c-.77.82-1.39.78-2.17,0a5,5,0,0,0-8.31,2.51c5.21.54,7.56,12.1,4.11,20.35-8.72-5.94-14-19.27-17.3-22.46a7.07,7.07,0,0,0-4.56-1.73A5.46,5.46,0,0,0,120.38,6.27Z"/></g></g></svg>