<svg xmlns="http://www.w3.org/2000/svg" viewBox="0 0 118.1 146.05"><defs><style>.cls-1,.cls-8{fill:#fff;}.cls-1,.cls-10,.cls-4,.cls-5,.cls-6,.cls-7{stroke:#231815;stroke-width:0.92px;}.cls-1,.cls-10,.cls-2,.cls-4,.cls-5,.cls-6,.cls-7{stroke-linecap:round;stroke-linejoin:round;}.cls-2,.cls-5{fill:none;}.cls-2{stroke:#f39b00;stroke-width:0.92px;}.cls-3,.cls-7{fill:#231815;}.cls-4{fill:#f5ab18;}.cls-11,.cls-6{fill:#f39b00;}.cls-10,.cls-9{fill:#5c85c4;}</style></defs><title>アセット 16</title><g id="レイヤー_2" data-name="レイヤー 2"><g id="ロゴ"><path class="cls-1" d="M50.62,129c.24.39.55.9,1,.75,3.19-2.31,6-4.09,11-4.88l.58-.1a38.5,38.5,0,0,1-4.13-9.53c-.18-.67-.33-1.34-.47-2a15.75,15.75,0,0,1-6-.23c-3.32-1-4.86-3.87-4.53-5.65a2.47,2.47,0,0,1-.9-2.73,3.36,3.36,0,0,1-1.09-4.12c-2.23-1.36-1.82-3.36-1.72-4.4.21-2.16,1.48-3,4.92-2.77,2.86.2,6.3.74,8-.63,1.39-1.14-.1-4.33-.34-5.26a6.1,6.1,0,0,1,0-3.15c-1.11,0-2.27-.1-3.53-.19-5.66-.41-9.41-1-14.45-3.21-.18-.07-.34-.16-.51-.23h0c-2.62.42-5.91,1-8.36,1.43l-.41.34c1.37,1.28,1.25,3.23-.29,4.93,1,2.5,1.9,5.23,1.9,5.23.33,1.28.57,2.48.57,2.48a22,22,0,0,0-2.47,8.59c0,7,3.17,14.63,8.26,22.4a12.26,12.26,0,0,1,4.84,3.37c1,.37,5.45.74,8-.75Z"/><path class="cls-2" d="M54.58,84.22a9.8,9.8,0,0,1-1.86.64L47,86.28l-1.07-2a2.33,2.33,0,0,1-.33-1.19"/><path class="cls-3" d="M41.77,87.17c-.62,0-1.54,1.62-1.25,2.42-1,.67-1.54,2.26-1,2.39a.67.67,0,0,1-.56.31.26.26,0,0,1-.23-.14c0-.09-.08-.09-.18,0a.48.48,0,0,1-.33.09c-.18,0-.27-.17-.24-.39.56,0,1.43-1.59,1.14-2.37,1-.69,1.58-2.31,1-2.44a.76.76,0,0,1,.6-.34.31.31,0,0,1,.25.15c0,.08.08.09.18,0a.57.57,0,0,1,.37-.09c.21,0,.3.17.25.41"/><path class="cls-3" d="M43.52,92.47c-.61-.16-.27-2,.51-2.52-.59-.77,0-2.42.75-2.54a.33.33,0,0,0-.3-.43.69.69,0,0,0-.4.08c-.11.07-.17.06-.21,0a.37.37,0,0,0-.28-.17.83.83,0,0,0-.65.33c.54.28-.37,1.88-1.55,2.44.25.61-1,2.36-1.66,2.36a.32.32,0,0,0,.28.41.6.6,0,0,0,.37-.09c.1-.07.15-.06.19,0a.37.37,0,0,0,.26.16.7.7,0,0,0,.59-.31c-.17,0-.25-.26-.11-.57a.91.91,0,0,1,.84-.62c.33,0,.41.37.23.75s-.42.5-.58.48a.33.33,0,0,0,.28.42.56.56,0,0,0,.37-.08c.11-.07.16-.06.2,0a.32.32,0,0,0,.25.17.74.74,0,0,0,.62-.3m-1.13-2c-.47,0-.1-1,.62-1.36.31.52-.15,1.42-.62,1.36"/><path class="cls-3" d="M46.11,87.49c.52.16-.11,1.83-1.09,2.52.28.85-.61,2.47-1.18,2.49,0,.23,0,.4.24.42a.41.41,0,0,0,.33-.09c.1-.07.16-.06.19,0a.28.28,0,0,0,.23.17.68.68,0,0,0,.56-.31c-.47-.18,0-1.61.94-2.53.72,1.14,0,2.49-.59,2.57,0,.24,0,.41.23.43a.6.6,0,0,0,.34-.07c.11-.08.16-.08.18,0a.28.28,0,0,0,.23.17.71.71,0,0,0,.58-.3c-.51-.17.11-1.84,1.12-2.5-.26-.86.71-2.49,1.33-2.49,0-.23,0-.41-.24-.44a.58.58,0,0,0-.36.08c-.11.07-.17.06-.19,0a.3.3,0,0,0-.25-.18.7.7,0,0,0-.61.31c.44.11.08,1.29-.61,2-.46-.69-.29-2.07-.43-2.42a.38.38,0,0,0-.32-.22.71.71,0,0,0-.63.32"/><path class="cls-3" d="M35.77,92.1a1.17,1.17,0,0,0,.67-.22c.1-.08.15-.08.18,0a.38.38,0,0,0,.33.23.77.77,0,0,0,.58-.36c-.56,0,.15-1.66.92-1.77,0-.22-.05-.37-.23-.37a.54.54,0,0,0-.36.12c-.1.07-.15.07-.18,0a.24.24,0,0,0-.23-.12.78.78,0,0,0-.58.35c.7.16-.24,1.4-.78,1.41s-.11-1.48.7-2c-.31-.55.53-2.07,1.24-2.07.55,0,.32.93-.53,1.34,0,.22,0,.37.24.38a.78.78,0,0,0,.36-.13c.1-.08.15-.07.18,0a.25.25,0,0,0,.24.13.8.8,0,0,0,.58-.34c-.15-.07-.21-.27-.06-.7.28-.84,0-1.41-.63-1.42l-.18,0a22.35,22.35,0,0,0-2.86,3,2.48,2.48,0,0,1-.22,1C34.78,91.48,35,92.12,35.77,92.1Z"/><path class="cls-3" d="M54.64,93.61a1.85,1.85,0,0,0,.21-.33c1.06-2-1.3-2.42-.56-3.86a.82.82,0,0,1,.83-.46.47.47,0,0,1,.22.71c-.19.36-.39.47-.64.48-.06.26,0,.47.23.53a.5.5,0,0,0,.38,0c.12-.08.18,0,.2.06a.31.31,0,0,0,.22.22.62.62,0,0,0,.62-.26c-.17-.1-.21-.31-.12-.73.2-.89,0-1.46-.73-1.66a2,2,0,0,0-2.24,1.27c-.94,1.87,1.23,2.1.42,3.67a1.43,1.43,0,0,1-.34.44C53.79,93.65,54.23,93.65,54.64,93.61Z"/><path class="cls-3" d="M52.59,93.12a.62.62,0,0,1,.58-.37c.06-.26,0-.48-.23-.53a.51.51,0,0,0-.4,0c-.12.06-.18,0-.21-.06a.32.32,0,0,0-.24-.22.69.69,0,0,0-.67.29.52.52,0,0,1,.23.64,2.58,2.58,0,0,0-.06.64l1,.07A.46.46,0,0,1,52.59,93.12Z"/><path class="cls-3" d="M49.86,93.42a2.88,2.88,0,0,1,1.33-2.34c-.2-.61.25-1.85.69-1.75.1,0,.15.09.19.19s.16.56.19.65.26.11.3-.1a16.07,16.07,0,0,1,.4-1.63c.16-.39.13-.42-.29-.31a2.75,2.75,0,0,1-.94.08,1.56,1.56,0,0,1-.69-.39c-.23-.23-.29-.21-.5.16s-.93,1.25-1.09,1.47,0,.3.15.18l.7-.46a.56.56,0,0,1,.32-.1c.44.09-.28,1.26-1,1.69.28.93-.66,2.58-1.25,2.55,0,0,0,0,0,0l.89,0Z"/><path class="cls-2" d="M30.64,84.74a54,54,0,0,1,2.75,7.66"/><path class="cls-1" d="M73,86.65A48.72,48.72,0,0,0,66.89,84a5.37,5.37,0,0,1-.75,2.89c-.52,1-2.08,5.08-.78,7.45C68.44,92,73.64,87.1,73,86.65Z"/><path class="cls-4" d="M32.67,77.45a39,39,0,0,1-9.33-8.88,2.65,2.65,0,0,0-1.89,1.58C14.91,68,7.71,72.91,5.74,78.1c1.07.65,2.1,2.05,2.64,4.88a8.4,8.4,0,0,1-.13,4.29c1.24,1.38,2.64,2.28,3.74,2a5.83,5.83,0,0,0,1.34-.52c2.5,1,5.72,1.6,8.23.86a8.13,8.13,0,0,0,6-.73c3.19-1.91,3.93-4.74,2.14-6.41A7,7,0,0,0,32.67,77.45Z"/><path class="cls-5" d="M31.89,95.12c.27-.56.56-1.1.85-1.6a23.5,23.5,0,0,1,8.87-9.41"/><path class="cls-4" d="M90.57,55.63c-.16-.64-.32-1.26-.5-1.87a12.44,12.44,0,0,0-3.43-4.87c-2.74,3.38-6.32,3.39-9.26,2.15a68.9,68.9,0,0,0-21.21-4.65A69,69,0,0,0,34.5,47.94c-3.08.81-6.62.29-8.85-3.46a12.47,12.47,0,0,0-4.11,4.36c-.26.57-.51,1.15-.75,1.75-4.61,1.67-7,6.86-1.05,11.16C20.67,66,27.39,75.94,39,80.94c5,2.18,8.79,2.8,14.45,3.21,1.26.09,2.42.16,3.53.19.5-1.71,2-3.36,5.63-3.36,2,0,3.75.82,4.19,2.43l1.41-.36C80.4,79.76,88.47,70.9,90,66.82,96.49,63.42,94.89,57.94,90.57,55.63Z"/><path class="cls-5" d="M23.72,73.41A5.87,5.87,0,0,1,26,81.12"/><path class="cls-5" d="M18.23,76.25a6,6,0,0,1,2.82,6"/><path class="cls-5" d="M29.71,82.48a4.54,4.54,0,0,0-1.68-1c-4-1.34-7.76,1-8.53,1.64-2.26,1.72-2.06,4-.27,5.41a6.4,6.4,0,0,0,2.33,1.06"/><path class="cls-5" d="M11.87,77.65c5.65,1.95,5.61,8.89,1.46,11.11"/><path class="cls-5" d="M21.45,70.15a9.64,9.64,0,0,1,1.31.52"/><path class="cls-6" d="M8.38,83c-1-5.21-3.64-5.59-5.19-5.28C.86,78.18-.08,81.44.76,84.4c1.16,4.12,3.14,5.65,5.34,5S9,86.36,8.38,83Z"/><path class="cls-5" d="M17.85,86a4.55,4.55,0,0,1-2-.06"/><path class="cls-5" d="M33,102a9.66,9.66,0,0,0-.23,2.62"/><path class="cls-5" d="M35.65,111.42c.56.93,1.64,3.24,10.23,3.76.44,1.46,2.48,8.31,4.74,13.86"/><path class="cls-1" d="M80.77,142.05c-8.15,1.78-23.82,1.85-32-2.13-1.16-.57-1.72-1.06-1.89-1.78-.7,1.26.17,2.37,1.89,3.21,8.14,4,23.81,3.91,32,2.13,3.09-.68,5.6-2.73,4.44-4.73A6.14,6.14,0,0,1,80.77,142.05Z"/><path class="cls-1" d="M58.54,144c.11.8.4,1,.92,1.06a40.39,40.39,0,0,0,4.06.51c.79,0,.95-.08,1.19-1C62.63,144.48,60.54,144.3,58.54,144Z"/><path class="cls-7" d="M31.5,101.82a18.79,18.79,0,0,0-1.89-.06,11.46,11.46,0,0,0-.19,1.95c0,.39,0,.78,0,1.18.75,0,1.58,0,1.82,0C31.27,104.6,31.39,102.43,31.5,101.82Z"/><path class="cls-7" d="M50.62,129c.24.39.55.9,1,.75,3.35-2.42,6.22-4.28,11.79-5A9.92,9.92,0,0,1,68,126.7c6.45-.8,12,.64,15,3.43,4.48,4.21,3.66,10.65-2.14,11.92-8.15,1.78-23.82,1.85-32-2.13-2.47-1.21-2.2-2.07-1.32-5.54C47.88,132.8,49.87,129.33,50.62,129Z"/><path class="cls-7" d="M51.28,129.77c-.09-9,5.81-13.21,11.69-4.92l.29,0a44.37,44.37,0,0,1-2.33-4.4c-4.33-1.86-11.19.11-13,1.16.79,2.37,1.74,5.05,2.73,7.48A1.64,1.64,0,0,0,51.28,129.77Z"/><path class="cls-7" d="M50.5,128.73c-2.53,1.49-7,1.12-8,.75a12.11,12.11,0,0,0-4.92-3.4,23.36,23.36,0,0,0-4.71,1.42c-5.65-1.3-15.06-4-21.86.8-5.27,3.68-4.37,11.4,1,12.77,7.63,1.94,27.4-.22,35-2.77-.28-.83,0-2,.52-3.92.39-1.58,2.38-5,3.13-5.34Z"/><path class="cls-8" d="M46.62,137.12a4.27,4.27,0,0,1-1,.56,16.13,16.13,0,0,1-3.44.79,6.15,6.15,0,0,1-5.75-2.35,10.28,10.28,0,0,0-2.72-2.36,33.69,33.69,0,0,0,6.86-1.85,27.38,27.38,0,0,0,4.41.36,2.56,2.56,0,0,1,2.27,1.59,37.84,37.84,0,0,1-4.59.61c.07.32.53.34.65.78a21.21,21.21,0,0,1,2.43-.32,1.62,1.62,0,0,1,1.21.32c.06-.23.12-.48.18-.74l.06-.2a16.67,16.67,0,0,1,2.08-4.22,12.19,12.19,0,0,1-8.9.87,41.24,41.24,0,0,1-12.73,2.14A26.64,26.64,0,0,1,32,137c1.66,1.82,3,2.83,5.85,2.62a35.2,35.2,0,0,0,8.74-1.75A4.21,4.21,0,0,1,46.62,137.12Z"/><path class="cls-9" d="M83.05,132.19c.16.6-.33,1.24-1.27,1.24s-1.54-.42-1.63-1.12A1.22,1.22,0,0,1,81.38,131,1.57,1.57,0,0,1,83.05,132.19Z"/><path class="cls-9" d="M82.29,134.18c.58,0,2.2.64,1.27,2.69a8.76,8.76,0,0,1-5.48,4.23c-2.47.52-3.16-.07-3.62-.63a1.15,1.15,0,0,1,.87-1.87c2.29-.33,4.44-1.41,5-3.34A1.9,1.9,0,0,1,82.29,134.18Z"/><path class="cls-8" d="M54.21,141c2.09-.14,3.42-1.09,4.77-3.33a17.24,17.24,0,0,1,2.8-3.82c-1.37-.06-7.69-1.61-8.71-2.51a2.75,2.75,0,0,1-3.45-.76q-.18.27-.36.57c0,.16.08.35.12.61a8.87,8.87,0,0,1-.9,3.4,3.68,3.68,0,0,0,.42,4A7.9,7.9,0,0,0,54.21,141Zm-5-2.26c-1.17-1.46-.76-3.63.29-3.28a14.63,14.63,0,0,1,1.68.83l.89-.83a17.06,17.06,0,0,1-3-.9,2.59,2.59,0,0,1,1.13-1.67,11.8,11.8,0,0,1,2.69-.59,36.14,36.14,0,0,0,4.77,1.61,34.44,34.44,0,0,0-2,3.34c-1,1.41-2.15,3-3.64,2.92A4.12,4.12,0,0,1,49.2,138.77Z"/><path class="cls-1" d="M80.77,143.48a53.14,53.14,0,0,1-7.81,1c-.06,1,.21,1.14,1.11,1.09a37.73,37.73,0,0,0,6.63-.78c.93-.26,1-.23,1.14-1.62A10,10,0,0,1,80.77,143.48Z"/><path class="cls-1" d="M48.81,141.35q-.36-.18-.66-.36c-.24,1.5,0,1.43.51,1.82a10.88,10.88,0,0,0,3.34.77c.46,0,.61.16.78-.75A23.61,23.61,0,0,1,48.81,141.35Z"/><path class="cls-1" d="M46.82,138.35C39.16,140.87,19.6,143,12,141.07a5.76,5.76,0,0,1-3.6-2.72c-.47,1.74.33,3.16,3.6,4,7.58,1.93,27.13-.19,34.79-2.71A1.58,1.58,0,0,1,46.82,138.35Z"/><path class="cls-1" d="M46.74,139.43a1.59,1.59,0,0,0,.07.2,51.33,51.33,0,0,1-6.24,1.51c.21,1.81,1.21,1.54,1.92,1.4s2.62-.67,3.39-.82.81-.07,1.09-1.79A2,2,0,0,1,46.74,139.43Z"/><path class="cls-1" d="M23.31,143c.17,1.05.7,1.17,1.23,1.26a41.44,41.44,0,0,0,5.08-.28c.87-.09.94,0,1-1.48C28.16,142.78,25.67,143,23.31,143Z"/><path class="cls-7" d="M45.71,129.81c.25,0,.49,0,.74,0-.35-3.28.69-5.89,1.89-6.91-.19-.54-.36-1.06-.53-1.57-4,.74-10.18,0-13.45-.76.25.47.51.94.78,1.42C42.09,121.13,45.49,126.45,45.71,129.81Z"/><path class="cls-1" d="M12.55,142.46c.2,1.06.4,1.88,1.06,1.76s.65-.62.59-1.47C13.61,142.67,13.06,142.57,12.55,142.46Z"/><path class="cls-5" d="M24.23,143a4,4,0,0,0,.08.94"/><path class="cls-9" d="M14.17,129.84c.79.16,1.61.74,1.1,1.39a2,2,0,0,1-2.31.46c-.54-.24-1.34-.66-.78-1.29A1.94,1.94,0,0,1,14.17,129.84Z"/><path class="cls-9" d="M11.78,132.15c.51,0,1.54.41,1.54.93a3,3,0,0,1-.56,1.39,3.35,3.35,0,0,0,.05,3.29.89.89,0,0,1-.07,1.31,2,2,0,0,1-2.71-.44,4.11,4.11,0,0,1-.57-5A2.34,2.34,0,0,1,11.78,132.15Z"/><path class="cls-1" d="M42.63,102.55a14.88,14.88,0,0,0-2.24-.18c-.6,0-.85.55-.91,1.15s-.15,1.16.61,1.25,2.12.15,2.6.17c0,.48.07.83-1,1a7.76,7.76,0,0,1-2.71-.08,1.57,1.57,0,0,1-.82-1.56,7.36,7.36,0,0,1,.17-1.64,1.56,1.56,0,0,1,1.23-1.13,9.43,9.43,0,0,1,2.67.21A.79.79,0,0,1,42.63,102.55Z"/><path class="cls-2" d="M64.86,92c2.7-2.25,6-5.41,6.27-6.31"/><path class="cls-1" d="M80.29,62c.87.06,7.13.61,9.21.85-1.25-.49-1.25-.84-.13-1.23-1.1-.32-1.08-.73.1-1-1,.09-5.1-.27-6.37-.36-2.9-.21-2-2.83-.45-3.19a20.61,20.61,0,0,0-.08-5.46A8.33,8.33,0,0,1,77.38,51,58.78,58.78,0,0,0,66,47.69c-2.73,3.7-5.26,9.21-5.83,17.23a1.84,1.84,0,0,0,.7,1.48,17,17,0,0,0,9.25,4.13,11,11,0,0,0,8.72-3.27C75.09,66.57,76.27,61.71,80.29,62Z"/><path class="cls-1" d="M34.5,47.94a8.23,8.23,0,0,1-5.21-.19,20,20,0,0,0-.86,5.39c0,.47,0,.44,0,.6s-.12.39-.5.49-2.56.84-2.68,2.55,1.83,2.73,2.1,2.84c.49.19.49.06.68.51a12.88,12.88,0,0,0,10.84,8.15,17.11,17.11,0,0,0,9.75-2.76,1.89,1.89,0,0,0,.91-1.37c.57-8-1.13-13.84-3.31-17.89A59.32,59.32,0,0,0,34.5,47.94Z"/><path class="cls-1" d="M21.55,48.83h0Z"/><path class="cls-10" d="M64.53,55a3.7,3.7,0,0,0-2.8,1.3,38.38,38.38,0,0,0-1.55,8.58,1.84,1.84,0,0,0,.7,1.48,12,12,0,0,0,2,1.53l.38,0c2.9.21,4.16-4.65,4.26-6C67.81,58,66.82,55.2,64.53,55Z"/><path class="cls-10" d="M49.23,55.44a3.73,3.73,0,0,0-2.58-1.69c-2.29-.17-3.67,2.42-4,6.45-.1,1.33.46,6.32,3.35,6.53h.39a12.86,12.86,0,0,0,2.2-1.22,1.89,1.89,0,0,0,.91-1.37A38.68,38.68,0,0,0,49.23,55.44Z"/><path class="cls-1" d="M44.68,55.6a1.87,1.87,0,0,0,1.8,2.13,2.09,2.09,0,0,0,2.05-1.85,2,2,0,0,0-1.7-2.1l-.18,0A1.83,1.83,0,0,0,44.68,55.6Z"/><path class="cls-7" d="M49.23,55.44a5.94,5.94,0,0,0-.6-.7,2.72,2.72,0,0,0-.24.24,1.82,1.82,0,0,1,.14.9,2.07,2.07,0,0,1-1.85,1.84,8.76,8.76,0,0,0-.66,2.4c-.18,2.57,1.1,3.61,1.9,3.66a1.89,1.89,0,0,0,1.69-1A38,38,0,0,0,49.23,55.44Z"/><path class="cls-3" d="M54.84,64.78c1.65.12,2.51.42,2.45,1.18s-1.9,1.61-2.65,1.55-2.45-1.16-2.4-1.92S53.18,64.66,54.84,64.78Z"/><path class="cls-5" d="M61.22,70.28a2.61,2.61,0,0,0-.78-.73A1.5,1.5,0,0,1,61,70.72c-.13,1.81-3.81,3.3-6.6.44-3.17,2.43-6.61.43-6.48-1.39a1.5,1.5,0,0,1,.71-1.07,2.69,2.69,0,0,0-.88.6"/><path class="cls-5" d="M56.66,76.48a3,3,0,0,1-5.3-.38"/><path class="cls-5" d="M56.38,63.94a5.06,5.06,0,0,0-1.46-.34,5.26,5.26,0,0,0-1.49.12"/><path class="cls-1" d="M62.36,56.88A2.08,2.08,0,0,0,64.12,59a1.87,1.87,0,0,0,2.08-1.84A1.82,1.82,0,0,0,64.53,55h-.19A2,2,0,0,0,62.36,56.88Z"/><path class="cls-7" d="M62.36,56.88a1.81,1.81,0,0,1,.25-.85,2.92,2.92,0,0,0-.21-.28,6,6,0,0,0-.67.59,38,38,0,0,0-1.44,7.28,1.85,1.85,0,0,0,1.5,1.16c.8.06,2.22-.78,2.4-3.35A8.38,8.38,0,0,0,63.88,59,2.06,2.06,0,0,1,62.36,56.88Z"/><path class="cls-1" d="M56.17,46.39q-2.45-.16-4.8-.21c.23.43.47.85.73,1.26,1.41,2.3,2.54,3,3.76,3.1S58.31,50.08,60,48c.31-.37.61-.76.9-1.15Q58.6,46.57,56.17,46.39Z"/><path class="cls-8" d="M53.81,65.46c.19,0,.24.14,0,.21s-.46.34-.45.5-.08.21-.18.1C52.62,65.58,53.33,65.42,53.81,65.46Z"/><path class="cls-4" d="M36.24,19.89a15,15,0,0,1,5.67-1.21A50.75,50.75,0,0,0,32.65,3.9c-2-2.11-3.84-3.19-6-3.34a7.64,7.64,0,0,0-4,.84,1,1,0,0,1-1.13.08,9.86,9.86,0,0,0-3.88-1c-5.81-.41-8.57,3-8.72,5-.26,3.56,3,5.15,4.15,5.88C20.58,16,25.23,20.77,29.9,25.88A12.79,12.79,0,0,1,36.24,19.89Z"/><path class="cls-7" d="M56.72,38.66c17,1.23,30.79,7.7,33.36,15.12C84.34,34.06,88.2,29,79.69,23,73.42,19.14,66.2,21.34,58,20.75S43,17,36.24,19.89c-9.27,4.66-6.19,10.26-14.7,29C25.16,41.86,39.71,37.44,56.72,38.66Z"/><path class="cls-9" d="M23.31,46.44a10.31,10.31,0,0,0-1.77,2.4C30.05,30.15,27,24.55,36.24,19.89a16.3,16.3,0,0,1,7.7-1.18c-.58.17-.68.46-1.16.53-1.24.21-1.73.51-2.5.56s-1.56,0-1,.25.39.15-.47.39-.77.5-1.39.54-.38.47-.93.51.08.43-.84.59-1.08.71-.62.57,1-.15,0,.45-.7.31-1,.6-.54.48-.23.55.4.33-.22.55-.31.38-.77.85-.07.55-.45,1-.15.54-.62.75-.77.41-.45.66.55.85-.07.89-.77.41-.38.38.31.34-.08.45-.69.41-.14.55.62.14,0,.71-.31.73-.77.94-.46.48,0,.45.54.14.16.43-.15.55-.69.67-.31.38.16.35.7.13-.08.36-1.78.57-1,.51,1.25.28.7.4-.3.38-.61.67.24.43,0,.89a1.29,1.29,0,0,1-.84.86c-.54.21-.54.48-.15.36s.46.24.08.45-.7.22-.54.57a.51.51,0,0,1-.22.72c-.23.11.39.24,0,.72s.12,1-.37,1.27c-.78.47-.15.84-.85,1.13-.47.19-.3.82.09.61s0,.45-.31.47-.3.38-.56.39.21.35-.1.6-.56.4-.56.69-.31.09-.56.58Z"/><path class="cls-4" d="M100.81,6.49a9.61,9.61,0,0,0-4,.42,1,1,0,0,1-1.11-.25,7.63,7.63,0,0,0-3.81-1.39c-2.12-.16-4.13.64-6.38,2.45A50.86,50.86,0,0,0,74.25,21a15,15,0,0,1,5.44,2,12.75,12.75,0,0,1,5.41,6.83c5.35-4.38,10.64-8.39,18.67-11.92,1.26-.56,4.69-1.66,5-5.22C108.87,10.67,106.62,6.91,100.81,6.49Z"/><path class="cls-3" d="M56.72,38.66c-13.11-.94-24.81,2-31.07,5.82a8,8,0,0,0,8.85,3.46,69,69,0,0,1,21.67-1.55A68.9,68.9,0,0,1,77.38,51a8,8,0,0,0,9.26-2.15C81,44.21,69.84,39.61,56.72,38.66Z"/><path class="cls-9" d="M27,43.62A5.75,5.75,0,0,0,32.86,47c.23-.33-.24-.77-1.06-.38.23-.26.43-.56.68-.86a3.21,3.21,0,0,0-.72.24.81.81,0,0,0,.1-.18,1.62,1.62,0,0,1-.48.06,2.33,2.33,0,0,1,.42-.51l-.16,0c.09-.08.11-.24.15-.3s-.2,0-.29,0-.39-.23-.34-.3c-.16,0,.11.08-.05.11,0-.29-.12-.42,0-.67a5.4,5.4,0,0,0-.7.38.72.72,0,0,1,.13-.42L30.38,44c.16-.35.5-.5.71-.77l-.11,0a6.62,6.62,0,0,1,1.48-.82c8.51-2.55,14.1-3.52,24.14-2.8,18.32,1.33,28.83,8.22,28.83,8.22C79.5,43.12,69,39.54,56.74,38.65S33.56,39.81,27,43.62Z"/><path class="cls-10" d="M56.17,46.39A69,69,0,0,0,34.5,47.94c-3.09.81-6.63.29-8.86-3.46A1.25,1.25,0,0,1,27,43.62c2.15,4.06,5.71,3.59,7.71,3.05,5.38-1.43,12.25-2.28,21.53-1.61s16,2.49,21.07,4.69c1.91.81,5.36,1.79,8.08-1.92a1.25,1.25,0,0,1,1.24,1.05c-2.75,3.39-6.33,3.4-9.27,2.16A68.9,68.9,0,0,0,56.17,46.39Z"/><path class="cls-5" d="M56.72,38.66c17,1.23,30.79,7.7,33.36,15.12C84.34,34.06,88.2,29,79.69,23,73.42,19.14,66.2,21.34,58,20.75S43,17,36.24,19.89c-9.27,4.66-6.19,10.26-14.7,29C25.16,41.86,39.71,37.44,56.72,38.66Z"/><path class="cls-7" d="M79.44,94.86C78.56,93.26,76.5,91,72,88.33a59.17,59.17,0,0,1-6.62,6,3.35,3.35,0,0,0,.29.44c3.8,4.79,4.27,9,3,12.33,1.21-.71,2.61-1.55,3.68-2.31a38.36,38.36,0,0,0,6.82-6A3.28,3.28,0,0,0,79.44,94.86Z"/><path class="cls-7" d="M47.2,104.67a3.23,3.23,0,0,1-1.32-2c-.92-.1-2.05-.2-3.23-.3a1.36,1.36,0,0,1,0,.21,14.88,14.88,0,0,0-2.24-.18c-.6,0-.85.55-.91,1.15s-.15,1.16.61,1.25,2.12.15,2.6.17a1.69,1.69,0,0,0,0,.23l4.38.33A1.88,1.88,0,0,1,47.2,104.67Z"/><path class="cls-7" d="M34.66,102c0,.43,0,2-.14,2.89,1.11,0,2.41,0,3.77.08a2.57,2.57,0,0,1-.09-.67,7.36,7.36,0,0,1,.17-1.64,1.41,1.41,0,0,1,.28-.56C36.94,102,35.44,101.9,34.66,102Z"/><path class="cls-6" d="M32.67,77.45a6.72,6.72,0,0,1-1.22,3.26c1.64,0,3.87-.14,6.31-.34A37.33,37.33,0,0,1,32.67,77.45Z"/><path class="cls-6" d="M115.44,49.34c-2-2.4-3.76-3.16-7.65-2.61-1.87.26-9.16,1.83-19.05,4.51a10.39,10.39,0,0,1,1.33,2.52c.18.61.34,1.23.5,1.87,4.32,2.31,5.92,7.79-.56,11.19a13.21,13.21,0,0,1-1.61,2.83c10.52-2.72,19.9-5.19,22.86-6,3.51-.94,6.54-3.51,6.38-7.23C117.52,53.66,116.87,51,115.44,49.34Z"/><path class="cls-5" d="M90.57,55.63c-.16-.64-.32-1.26-.5-1.87a12.44,12.44,0,0,0-3.43-4.87c-2.74,3.38-6.32,3.39-9.26,2.15a68.9,68.9,0,0,0-21.21-4.65A69,69,0,0,0,34.5,47.94c-3.08.81-6.62.29-8.85-3.46a12.47,12.47,0,0,0-4.11,4.36c-.26.57-.51,1.15-.75,1.75-4.61,1.67-7,6.86-1.05,11.16C20.67,66,27.39,75.94,39,80.94c5,2.18,8.79,2.8,14.45,3.21,1.26.09,2.42.16,3.53.19.5-1.71,2-3.36,5.63-3.36,2,0,3.75.82,4.19,2.43l1.41-.36C80.4,79.76,88.47,70.9,90,66.82,96.49,63.42,94.89,57.94,90.57,55.63Z"/><path class="cls-5" d="M73,86.65A48.72,48.72,0,0,0,66.89,84a5.37,5.37,0,0,1-.75,2.89c-.52,1-2.08,5.08-.78,7.45C68.44,92,73.64,87.1,73,86.65Z"/><path class="cls-7" d="M29.42,87.41v0a7.73,7.73,0,0,1-7.87,2.23c-2.51.74-5.73.13-8.23-.86a5.83,5.83,0,0,1-1.34.52,3.39,3.39,0,0,1-2.76-1.06c.16,1.2.35,2.4.54,3.22.51,2.21,2.47,5.89,8.74,5.61,3,.14,5.45-1.48,7-2,.74-.28,2.36-1,5.86-2.37C31.32,92.64,30.39,89.91,29.42,87.41Z"/><path class="cls-1" d="M31.88,95.09c0-.18-.26-1.28-.56-2.45L30,93.16a10.25,10.25,0,0,0,1.53,2.62Z"/><path class="cls-4" d="M46.11,100.55a3.36,3.36,0,0,0,1.09,4.12,2.47,2.47,0,0,0,.9,2.73c-.33,1.78,1.21,4.68,4.53,5.65,4.12,1.2,12.15-.27,14.68-3.6s3.12-8.66-1.66-14.69c-1.8-2.27-.07-6.85.49-7.89C68.22,83,65.75,81,62.6,81c-6.24,0-6.13,4.8-5.67,6.51.24.93,1.73,4.12.34,5.26-1.66,1.37-5.1.83-8,.63-3.44-.25-4.71.61-4.92,2.77C44.29,97.19,43.88,99.19,46.11,100.55Z"/><path class="cls-4" d="M48.1,107.4A9.13,9.13,0,0,0,50.48,109"/><path class="cls-4" d="M50.21,101.76a10.59,10.59,0,0,1-4.1-1.21"/><path class="cls-4" d="M47.2,104.67a8.65,8.65,0,0,0,3.08,1.38"/><path class="cls-11" d="M59.85,29.61l1,1.16a1.45,1.45,0,0,1,1-.49l.5,0a9.2,9.2,0,0,0-1.16,1.49,1.25,1.25,0,0,1-.89.56,11,11,0,0,0-1.48.22,2.06,2.06,0,0,0-.27.12l.28-3,2.63-2.06s.52.66.77,1l2,.19a7.08,7.08,0,0,1-.94-1c-.28-.38-.61-.92-.75-1.11l.39-.3a1.25,1.25,0,0,0,.94.15.91.91,0,0,0,.69-.66.78.78,0,0,0-.16-.7,1.3,1.3,0,0,0-.9-.42,1.28,1.28,0,0,0-.25-1,.81.81,0,0,0-.68-.26.76.76,0,0,0-.63.44A1.41,1.41,0,0,0,62,25.18l-.58.45-.31-.17a12,12,0,0,1-2.35-1.61l-.11-.11-.13.1A7.68,7.68,0,0,1,55.92,25a2.13,2.13,0,0,0-.37.14L55,24.54a1.43,1.43,0,0,0,.15-1.11.81.81,0,0,0-.71-.58.78.78,0,0,0-.55.16,1.27,1.27,0,0,0-.43.94,1.3,1.3,0,0,0-1,.25.79.79,0,0,0-.28.66.89.89,0,0,0,.55.77,1.27,1.27,0,0,0,1,0l.51.58-.26.32a9.24,9.24,0,0,1-3.16,2.34,8.24,8.24,0,0,1,2.54,3,3.44,3.44,0,0,0,1.51,1.63,3.37,3.37,0,0,0,.46.12,3.48,3.48,0,0,1,1.41.67l-.13,1.39c-.29.07-1,.36-1,1a.89.89,0,0,0,.21.66.82.82,0,0,0,.54.26,1.33,1.33,0,0,0,1-.37,1.43,1.43,0,0,0,1,.52.83.83,0,0,0,.82-.72,1.33,1.33,0,0,0-.81-1.17s.11-1.25.13-1.42a3.67,3.67,0,0,1,1.32-.5l.38-.07a3.71,3.71,0,0,0,2.53-1.46,12.78,12.78,0,0,1,2.61-2.86L62,29.21a2,2,0,0,1-.92-.58Zm-2.93,3a10.15,10.15,0,0,0-1.15-.37,1.78,1.78,0,0,1-1-.78c-.24-.4-.6-1.14-.76-1.49a1.82,1.82,0,0,0-1-.78A3.86,3.86,0,0,0,54.72,28c.16-.21.37-.47.52-.64l1.95,2.22Zm1.26-4.44-1.55-1.76.61-.21a2.75,2.75,0,0,0,1.21-.85,3.33,3.33,0,0,0,1.21,1.12l.45.19Z"/></g></g></svg>