<svg xmlns="http://www.w3.org/2000/svg" xmlns:xlink="http://www.w3.org/1999/xlink" viewBox="0 0 47.13 47"><defs><style>.cls-1,.cls-2{fill:#f59b00;}.cls-2{font-size:34.97px;font-family:ArialRoundedMTBold, Arial Rounded MT Bold;}.cls-3{fill:url(#名称未設定グラデーション_11);}.cls-4{fill:url(#名称未設定グラデーション_11-2);}.cls-5{fill:url(#名称未設定グラデーション_11-3);}</style><linearGradient id="名称未設定グラデーション_11" x1="37.67" y1="0.75" x2="37.67" y2="47.05" gradientUnits="userSpaceOnUse"><stop offset="0" stop-color="#fff" stop-opacity="0"/><stop offset="1" stop-color="#e30000" stop-opacity="0.4"/></linearGradient><linearGradient id="名称未設定グラデーション_11-2" x1="23.33" y1="0.75" x2="23.33" y2="47.05" xlink:href="#名称未設定グラデーション_11"/><linearGradient id="名称未設定グラデーション_11-3" x1="23.57" y1="0.75" x2="23.57" y2="47.05" xlink:href="#名称未設定グラデーション_11"/></defs><title>アセット 15</title><g id="レイヤー_2" data-name="レイヤー 2"><g id="ヘッダー"><polygon class="cls-1" points="43.87 32.15 28.62 32.15 30.32 29.02 44.71 29.02 43.87 32.15"/><text class="cls-2" transform="matrix(0.99, 0, -0.15, 0.99, 9.68, 35.64)">P</text><path class="cls-1" d="M21.44,43.15A17.46,17.46,0,0,1,8.28,37.5,17.66,17.66,0,0,1,4,23.69C5.06,12.75,14.85,3.85,25.79,3.85A17.44,17.44,0,0,1,38.94,9.5a17.14,17.14,0,0,1,4.32,9.76h3.87A21.06,21.06,0,0,0,41.8,6.91,21.28,21.28,0,0,0,25.79,0C12.93,0,1.42,10.46.12,23.31A21.44,21.44,0,0,0,5.43,40.09a21.26,21.26,0,0,0,16,6.91c9.79,0,18.8-6.07,23.11-14.64H40.16A22.4,22.4,0,0,1,21.44,43.15Z"/><polygon class="cls-3" points="44.87 32.15 29.62 32.15 31.32 29.02 45.71 29.02 44.87 32.15"/><path class="cls-4" d="M23.43,26h-4.6l-1,7a3.81,3.81,0,0,1-1.05,2.28,2.73,2.73,0,0,1-1.91.77,2,2,0,0,1-1.71-.76A3,3,0,0,1,12.76,33L15.63,14a3.61,3.61,0,0,1,1.11-2.37,3.92,3.92,0,0,1,2.52-.71H25.7a16.15,16.15,0,0,1,4.32.44,5.47,5.47,0,0,1,2.42,1.41,5.16,5.16,0,0,1,1.32,2.39,8,8,0,0,1,.09,3.19,8.33,8.33,0,0,1-3.19,5.74A11.89,11.89,0,0,1,23.43,26Zm.48-11.35H20.54L19.4,22.22h3.38a10.58,10.58,0,0,0,3-.38,4.17,4.17,0,0,0,2-1.21,4.11,4.11,0,0,0,.95-2.21,3.32,3.32,0,0,0-.56-2.67C27.58,15,26.15,14.65,23.91,14.65Z"/><path class="cls-5" d="M21.44,43.15A17.46,17.46,0,0,1,8.28,37.5,17.66,17.66,0,0,1,4,23.69C5.06,12.75,14.85,3.85,25.79,3.85A17.44,17.44,0,0,1,38.94,9.5a17.14,17.14,0,0,1,4.32,9.76h3.87A21.06,21.06,0,0,0,41.8,6.91,21.28,21.28,0,0,0,25.79,0C12.93,0,1.42,10.46.12,23.31A21.44,21.44,0,0,0,5.43,40.09a21.26,21.26,0,0,0,16,6.91c9.79,0,18.8-6.07,23.11-14.64H40.16A22.4,22.4,0,0,1,21.44,43.15Z"/></g></g></svg>