<svg xmlns="http://www.w3.org/2000/svg" viewBox="0 0 59.79 37.98"><defs><style>.cls-1{fill:#fff;}</style></defs><title>アセット 11</title><g id="レイヤー_2" data-name="レイヤー 2"><g id="次の予定"><path class="cls-1" d="M33.66.07,8.79,10.73a.91.91,0,0,0,.11,1.71l24.86,7.1a.85.85,0,0,0,.5,0l24.87-7.1a.91.91,0,0,0,.11-1.71L34.37.07A1,1,0,0,0,33.66.07Z"/><path class="cls-1" d="M50,22.86c-6.14,3.23-14.73,4.46-15.84,4.61a.88.88,0,0,1-.23,0c-1.11-.15-9.7-1.38-15.84-4.61a.9.9,0,0,0-1.3.7c-.31,2.35-.79,7.22.19,9.18,1.23,2.47,15.29,4.95,16.91,5.23h.31c1.62-.28,15.67-2.76,16.91-5.23,1-2,.5-6.83.19-9.18A.9.9,0,0,0,50,22.86Z"/><path class="cls-1" d="M10.46,12.11a60.26,60.26,0,0,1-1.22,6.8.9.9,0,0,1-.89.7H7a.93.93,0,0,0-.82.5L.1,32.31a.9.9,0,0,0,0,.87c.74,1.24,3.09,4.57,6.32,3.5,3.76-1.26,3.93-13.32,3.93-14.37a.77.77,0,0,1,0-.15l1.85-9.78a.91.91,0,0,0-.64-1.05h0A.9.9,0,0,0,10.46,12.11Z"/></g></g></svg>