<svg xmlns="http://www.w3.org/2000/svg" viewBox="0 0 70.5 43.5"><defs><style>.cls-1{fill:#e4ddcd;}</style></defs><title>アセット 1</title><g id="レイヤー_2" data-name="レイヤー 2"><g id="コンテンツ"><polygon class="cls-1" points="39 0 7.5 13.5 39 22.5 70.5 13.5 39 0"/><path class="cls-1" d="M58.5,25.5C51,30,39,31.5,39,31.5s-12-1.5-19.5-6c0,0-1.5,9,0,12s19.5,6,19.5,6,18-3,19.5-6S58.5,25.5,58.5,25.5Z"/><path class="cls-1" d="M12.18,12.69A65.24,65.24,0,0,1,10.5,22.5h-3L0,37.5s3,6,7.5,4.5S12,25.5,12,25.5l2.31-12.2Z"/></g></g></svg>