<svg xmlns="http://www.w3.org/2000/svg" viewBox="0 0 59.84 49.21"><defs><style>.cls-1{fill:none;stroke:#e4ddcd;stroke-miterlimit:10;stroke-width:4.41px;}.cls-2{fill:#e4ddcd;}</style></defs><title>アセット 3</title><g id="レイヤー_2" data-name="レイヤー 2"><g id="コンテンツ"><rect class="cls-1" x="6.92" y="10" width="47" height="37"/><path class="cls-2" d="M.69,10c0-6.15-4.61-10,10-10H29.92V10Z"/><path class="cls-2" d="M59.15,10c0-6.15,4.62-10-10-10H29.92V10Z"/><rect class="cls-2" x="14.92" y="17" width="4" height="4"/><rect class="cls-2" x="23.92" y="17" width="4" height="4"/><rect class="cls-2" x="32.92" y="17" width="4" height="4"/><rect class="cls-2" x="41.92" y="17" width="4" height="4"/><rect class="cls-2" x="14.92" y="26" width="4" height="4"/><rect class="cls-2" x="23.92" y="26" width="4" height="4"/><rect class="cls-2" x="32.92" y="26" width="4" height="4"/><rect class="cls-2" x="41.92" y="26" width="4" height="4"/><rect class="cls-2" x="14.92" y="35" width="4" height="4"/><rect class="cls-2" x="23.92" y="35" width="4" height="4"/><rect class="cls-2" x="32.92" y="35" width="4" height="4"/><rect class="cls-2" x="41.92" y="35" width="4" height="4"/></g></g></svg>