<svg xmlns="http://www.w3.org/2000/svg" viewBox="0 0 53.86 44"><defs><style>.cls-1{fill:#fff;}</style></defs><title>アセット 12</title><g id="レイヤー_2" data-name="レイヤー 2"><g id="次の予定"><path class="cls-1" d="M50.93,44h-46V7h46Zm-42-4h38V11h-38Z"/><path class="cls-1" d="M.62,9c0-5.54-4.15-9,9-9H26.93V9Z"/><path class="cls-1" d="M53.24,9c0-5.54,4.15-9-9-9H26.93V9Z"/><rect class="cls-1" x="13.93" y="15" width="4" height="4"/><rect class="cls-1" x="21.93" y="15" width="4" height="4"/><rect class="cls-1" x="29.93" y="15" width="4" height="4"/><rect class="cls-1" x="37.93" y="15" width="4" height="4"/><rect class="cls-1" x="13.93" y="23" width="4" height="4"/><rect class="cls-1" x="21.93" y="23" width="4" height="4"/><rect class="cls-1" x="29.93" y="23" width="4" height="4"/><rect class="cls-1" x="37.93" y="23" width="4" height="4"/><rect class="cls-1" x="13.93" y="31" width="4" height="4"/><rect class="cls-1" x="21.93" y="31" width="4" height="4"/><rect class="cls-1" x="29.93" y="31" width="4" height="4"/></g></g></svg>