<svg xmlns="http://www.w3.org/2000/svg" viewBox="0 0 63.63 59.79"><defs><style>.cls-1{fill:#e4ddcd;}.cls-2{fill:none;}</style></defs><title>アセット 2</title><g id="レイヤー_2" data-name="レイヤー 2"><g id="コンテンツ"><path class="cls-1" d="M31.65,0C27.78,0,14.23,3,14.23,15.7s11.83,28,17.42,34.63c5.59-6.67,17.42-21.94,17.42-34.63S35.52,0,31.65,0Zm0,25a9,9,0,1,1,9-9A9,9,0,0,1,31.65,25Z"/><circle class="cls-2" cx="31.65" cy="15.92" r="7.1"/><path class="cls-2" d="M31.65.18c-3.87,0-17.42,3-17.42,15.7,0,11.7,10.05,25.59,16,32.91h2.84c6-7.32,16-21.21,16-32.91C49.07,3.19,35.52.18,31.65.18Zm0,24.77a9,9,0,1,1,9-9A9,9,0,0,1,31.65,25Z"/><polygon class="cls-1" points="44.04 48.79 47.69 54.79 57.85 54.79 50.79 48.79 44.04 48.79"/><path class="cls-1" d="M26.94,54.79H45.41l-3.65-6H35.55S34,50.58,33.13,51.58l-1.48,1.76-1.48-1.76c-.84-1-1.64-2-2.42-2.79H12.29l-1.93,2H23.9Z"/><polygon class="cls-1" points="60.1 56.79 28.63 56.79 30.92 59.79 63.63 59.79 60.1 56.79"/><polygon class="cls-1" points="8.37 52.79 0 59.79 27.6 59.79 22.27 52.79 8.37 52.79"/></g></g></svg>