<svg xmlns="http://www.w3.org/2000/svg" viewBox="0 0 40 40"><defs><style>.cls-1,.cls-3{fill:#fff;}.cls-2{fill:#e4ddcd;}.cls-3{stroke:#e4ddcd;stroke-miterlimit:10;stroke-width:4px;}</style></defs><title>アセット 1</title><g id="レイヤー_2" data-name="レイヤー 2"><g id="ロゴ"><circle class="cls-1" cx="20" cy="20" r="18"/><path class="cls-2" d="M20,4A16,16,0,1,1,4,20,16,16,0,0,1,20,4m0-4A20,20,0,1,0,40,20,20,20,0,0,0,20,0Z"/><path class="cls-3" d="M9,31.6A16,16,0,0,0,14,20,16,16,0,0,0,9,8.4"/><path class="cls-3" d="M31,31.6A16,16,0,0,1,31,8.4"/></g></g></svg>